<?xml version="1.0" encoding="UTF-8" standalone="no"?>
<!-- Created with Inkscape (http://www.inkscape.org/) -->

<svg
   version="1.1"
   id="svg2"
   width="615.23999"
   height="97.73333"
   viewBox="0 0 615.23999 97.73333"
   sodipodi:docname="bonnier_black.eps"
   xmlns:inkscape="http://www.inkscape.org/namespaces/inkscape"
   xmlns:sodipodi="http://sodipodi.sourceforge.net/DTD/sodipodi-0.dtd"
   xmlns="http://www.w3.org/2000/svg"
   xmlns:svg="http://www.w3.org/2000/svg">
  <defs
     id="defs6" />
  <sodipodi:namedview
     id="namedview4"
     pagecolor="#ffffff"
     bordercolor="#000000"
     borderopacity="0.25"
     inkscape:showpageshadow="2"
     inkscape:pageopacity="0.0"
     inkscape:pagecheckerboard="0"
     inkscape:deskcolor="#d1d1d1" />
  <g
     id="g8"
     inkscape:groupmode="layer"
     inkscape:label="ink_ext_XXXXXX"
     transform="matrix(1.3333333,0,0,-1.3333333,0,97.733333)">
    <g
       id="g10"
       transform="scale(0.1)">
      <path
         d="m 4150.61,580.109 h 154.9 c 75.94,0 122.5,-34.425 122.5,-101.242 v -2.031 c 0,-59.727 -43.54,-100.223 -119.46,-100.223 H 4150.61 L 4428.26,12.1484 H 4614.3 L 4426.27,259.238 c 94.8,33.575 159.67,108.789 159.67,225.703 v 2.024 c 0,66.816 -21.25,122.5 -60.74,161.98 -46.57,46.575 -116.43,71.875 -206.53,71.875 H 3994.71 V 12.1484 h 155.9 z M 2752.23,720.82 V 284.484 l -332.05,436.336 -215.71,-0.007 71.94,-94.528 V 12.1484 h 153.88 V 452.945 l 335.8,-440.7966 h 140.02 V 720.82 Z m -780.9,0 V 284.484 l -332.05,436.336 -215.71,-0.007 71.94,-94.528 V 12.1484 h 153.88 V 452.945 L 1985.2,12.1484 h 140.01 V 720.82 Z m 1388.98,0 h 534.55 V 582.129 H 3515.21 V 438.367 H 3849.3 V 299.668 H 3515.21 V 150.84 h 384.71 V 12.1484 h -539.61 z m -307.2,0 h 155.91 V 12.1484 H 3053.11 Z M 1248.09,364.465 v 2.019 c 0,121.496 -89.1,222.735 -214.63,222.735 -125.538,0 -212.608,-99.219 -212.608,-220.711 v -2.024 c 0,-121.484 89.097,-222.734 214.628,-222.734 125.55,0 212.61,99.219 212.61,220.715 z m -590.231,0 v 2.019 c 0,201.477 158.95,366.485 377.621,366.485 218.68,0 375.6,-162.989 375.6,-364.461 v -2.024 C 1411.08,165.012 1252.14,0 1033.46,0 814.773,0 657.859,162.988 657.859,364.465 Z M 337.129,148.82 c 68.848,0 110.351,24.293 110.351,76.942 v 2.019 c 0,47.59 -35.429,76.946 -115.41,76.946 H 151.855 V 148.82 Z m -41.504,285.496 c 68.848,0 112.383,22.278 112.383,74.922 v 2.024 c 0,46.57 -36.445,72.898 -102.266,72.898 H 151.855 V 434.316 Z M 0,720.82 h 329.043 c 80.977,0 144.766,-22.265 185.254,-62.761 32.402,-32.395 48.594,-71.875 48.594,-120.469 v -2.031 c 0,-79.985 -42.52,-124.524 -93.125,-152.871 81.992,-31.387 132.617,-78.965 132.617,-174.141 v -2.024 C 602.383,76.9453 497.09,12.1484 337.129,12.1484 H 0 V 720.82"
         style="fill:#231f20;fill-opacity:1;fill-rule:nonzero;stroke:none"
         id="path12" />
    </g>
  </g>
</svg>
