<?xml version="1.0" encoding="UTF-8"?>
<!-- Generator: Adobe Illustrator 19.1.0, SVG Export Plug-In . SVG Version: 6.00 Build 0)  -->
<svg version="1.1" id="Lager_1" xmlns="http://www.w3.org/2000/svg" xmlns:xlink="http://www.w3.org/1999/xlink" x="0px" y="0px" width="412.4px" height="70px" viewBox="0 0 412.4 70" style="enable-background:new 0 0 412.4 70;" xml:space="preserve">
<style type="text/css">
	.st0{fill:#89B3E0;}
	.st1{fill:#0073BD;}
	.st2{fill:#FFFFFF;}
</style>
<g>
	<g>
		<path class="st0" d="M12.6,50.6H0.4L1,0.7h11.5c8.6,0,16.9,1.7,16.9,24.9C29.5,48.2,21.7,50.6,12.6,50.6z M13,10.8h-0.9v29.7H13    c3.6,0,4.8-1.5,4.8-14.8C17.8,12.8,16.7,10.8,13,10.8z"/>
		<path class="st0" d="M32.9,50.6V0.7h11.9v49.9H32.9z"/>
		<path class="st0" d="M68.6,50.6l-3.8-10.1c-2-5.2-5.3-16-5.3-16s1,9.5,1,15.5v10.6H49.1V0.7h10.4l3.5,9.4c1.9,5,4.8,15,4.8,15    s-0.9-8.5-0.9-14.8V0.7h11.3v49.9H68.6z"/>
	</g>
	<g>
		<path class="st1" d="M101.8,50.6H82.6V0.7h11.8V40h9L101.8,50.6z"/>
		<path class="st1" d="M118.9,51.3c-6.9,0-15.5-2.4-15.5-25.6c0-23.1,8.5-25.6,15.5-25.6c7.2,0,15.5,2.9,15.5,25.6    C134.4,48.4,126.3,51.3,118.9,51.3z M118.9,9.6c-2.7,0-3.7,2-3.7,16c0,14,1.2,16,3.7,16c2.5,0,3.7-1.5,3.7-16    C122.6,12.6,122,9.6,118.9,9.6z"/>
	</g>
	<g>
		<path class="st1" d="M137.8,50.6V0.7h11.8v49.9H137.8z M156.7,51.3l-7-27.1l6.1-23.5h13l-7.9,23.2l8.6,26.7L156.7,51.3z"/>
		<path class="st1" d="M190.9,50.6l-0.9-8.3h-7.7l-0.9,8.3h-12.3l9.7-49.9h14.7l9.7,49.9H190.9z M188.1,25.1c-0.5-4.8-2-18.9-2-18.9    s-1.5,14.3-2,18.9l-0.7,7.4h5.5L188.1,25.1z"/>
	</g>
	<g>
		<path class="st1" d="M223.6,50.6h-19.2V0.7h11.8V40h9L223.6,50.6z"/>
		<path class="st1" d="M247.2,11.4h-6.8v39.2h-11.8V11.4h-8.4V0.7h28.5L247.2,11.4z"/>
	</g>
	<g>
		<path class="st1" d="M249.4,50.6V0.7h11.9v49.9H249.4z"/>
		<path class="st1" d="M277.8,50.6h-12.2V0.7h12.2c8.6,0,16.9,1.7,16.9,24.9C294.7,48.2,286.9,50.6,277.8,50.6z M278.2,10.8h-0.9    v29.7h0.8c3.6,0,4.8-1.5,4.8-14.8C283,12.8,281.9,10.8,278.2,10.8z"/>
		<path class="st1" d="M317.6,50.6l-3.8-10.1c-2-5.2-5.3-16-5.3-16s1,9.5,1,15.5v10.6h-11.3V0.7h10.4l3.5,9.4c1.9,5,4.8,15,4.8,15    s-0.9-8.5-0.9-14.8V0.7h11.3v49.9H317.6z"/>
		<path class="st1" d="M331.6,50.6V0.7h11.9v49.9H331.6z"/>
		<path class="st1" d="M367.3,50.6l-3.8-10.1c-2-5.2-5.3-16-5.3-16s1,9.5,1,15.5v10.6h-11.3V0.7h10.4l3.5,9.4c1.9,5,4.8,15,4.8,15    s-0.9-8.5-0.9-14.8V0.7H377v49.9H367.3z"/>
		<path class="st1" d="M396.6,51.3c-6.4,0-16.2-0.7-16.2-24.9c0-23.9,12-26.4,18.8-26.4c6,0,10,2.1,10,2.1v10c0,0-5.1-1.8-9.7-1.8    c-4.6,0-7.3,2.4-7.3,16c0,12.9,2.2,14.2,4.6,14.2c1,0,2.9-0.4,2.9-0.4V29.7h-3.1l-0.6-9.8h15.5v28.9    C411.4,48.9,403.2,51.3,396.6,51.3z"/>
	</g>
	<rect y="54.3" class="st1" width="412.4" height="15.7"/>
	<g>
		<path class="st2" d="M7.5,66.4c-1.1,0-2-0.3-2-0.3v-1.6c0,0,1.2,0.3,1.8,0.3c0.7,0,1.2-0.2,1.2-0.9c0-0.5-0.3-0.8-0.8-1.1    l-0.8-0.6c-0.6-0.5-1.4-1.1-1.4-2.4c0-2,1.7-2.6,3.2-2.6c1.2,0,2,0.3,2,0.3V59c0,0-0.9-0.3-1.7-0.3c-0.6,0-1,0.3-1,0.9    c0,0.6,0.4,0.8,0.9,1.1l0.7,0.5c0.7,0.5,1.4,1.2,1.4,2.5C10.8,66,9.1,66.4,7.5,66.4z"/>
		<path class="st2" d="M16.7,66.3l-0.3-1.7h-2.1l-0.3,1.7h-2.5l2.5-9h2.8l2.5,9H16.7z M15.8,61.1c-0.1-0.9-0.5-2.9-0.5-2.9    s-0.3,2-0.5,2.9l-0.3,1.9h1.6L15.8,61.1z"/>
		<path class="st2" d="M24.8,66.3l-1.2-2.5c-0.7-1.4-1.3-3.2-1.3-3.2s0.3,1.8,0.3,3.2v2.5h-2.3v-9h2.2l1.2,2.5c0.7,1.4,1.2,3,1.2,3    s-0.3-1.7-0.3-3.2v-2.3h2.3v9H24.8z"/>
		<path class="st2" d="M31.4,66.3h-2.6v-9h2.6c2.1,0,4,0.4,4,4.4C35.4,65.7,33.6,66.3,31.4,66.3z M31.5,58.8h-0.3v5.9h0.3    c1.1,0,1.5-0.4,1.5-3C33,59.2,32.5,58.8,31.5,58.8z"/>
		<path class="st2" d="M41.3,66.3h-3.1l-2.2-9h2.6l0.6,4.5c0.1,0.9,0.4,3.5,0.4,3.5s0.3-2.6,0.4-3.5l0.6-4.5h2.6L41.3,66.3z"/>
		<path class="st2" d="M44.4,66.3v-9h2.4v9H44.4z"/>
		<path class="st2" d="M48.8,66.3v-9h2.4v9H48.8z M53.1,66.4l-1.9-4.9l1.7-4.2h2.7l-2.1,4.1l2.2,4.8L53.1,66.4z"/>
		<path class="st2" d="M62,58.9h-2.7v1.9h2.5v1.5h-2.5v2.3h2.8v1.6h-5.2v-9h5.3L62,58.9z"/>
		<path class="st2" d="M68.1,66.3l-1.2-2.5c-0.7-1.4-1.3-3.2-1.3-3.2s0.3,1.8,0.3,3.2v2.5h-2.3v-9h2.2l1.2,2.5c0.7,1.4,1.2,3,1.2,3    s-0.3-1.7-0.3-3.2v-2.3h2.3v9H68.1z"/>
	</g>
	<g>
		<path class="st2" d="M82.4,66.4l-0.6-0.8c-0.8,0.5-1.5,0.8-2.7,0.8c-1.8,0-3.3-0.5-3.1-2.4c0.2-2,2.7-2.5,2.7-2.5    s-1.5-0.5-1.4-2.1c0.2-1.5,1.4-2.2,3.2-2.2c1.9,0,2.9,0.6,2.7,2c-0.2,1.6-1.7,2.1-2.2,2.2l1.3,1.6c0.4-0.6,0.6-1.6,0.6-2.2H85    c-0.1,1.2-0.6,2.6-1.6,3.5l1.7,1.9L82.4,66.4z M79.4,62.5c0,0-0.9,0.2-1,1.4c-0.1,0.9,0.3,1.2,1,1.2c0.6,0,1.1-0.3,1.6-0.6    L79.4,62.5z M80.3,58.4c-0.5,0-0.7,0.4-0.8,1c-0.1,0.9,0.4,1.2,0.4,1.2s0.8-0.4,0.9-1.3C80.9,58.8,80.9,58.4,80.3,58.4z"/>
	</g>
	<g>
		<path class="st2" d="M94.9,66.3v-3.9h-2v3.9h-2.4v-9H93v3.5h2v-3.5h2.4v9H94.9z"/>
		<path class="st2" d="M102.4,66.4c-1.6,0-3.5-0.4-3.5-4.6c0-4.1,1.9-4.6,3.5-4.6c1.5,0,3.5,0.5,3.5,4.6    C105.9,65.9,104.1,66.4,102.4,66.4z M102.4,58.6c-0.8,0-1.1,0.5-1.1,3.1c0,2.7,0.4,3.1,1.1,3.1c0.7,0,1.1-0.4,1.1-3.1    C103.5,59.3,103.2,58.6,102.4,58.6z"/>
		<path class="st2" d="M112.4,58.9h-2.5v1.9h2.5v1.5h-2.5v3.9h-2.4v-9h5.2L112.4,58.9z"/>
		<path class="st2" d="M117.1,66.4c-1.6,0-3.5-0.4-3.5-4.6c0-4.1,1.9-4.6,3.5-4.6c1.5,0,3.5,0.5,3.5,4.6    C120.6,65.9,118.7,66.4,117.1,66.4z M117.1,58.6c-0.8,0-1.1,0.5-1.1,3.1c0,2.7,0.4,3.1,1.1,3.1c0.7,0,1.1-0.4,1.1-3.1    C118.2,59.3,117.9,58.6,117.1,58.6z"/>
		<path class="st2" d="M126.1,66.3l-0.3-2c-0.1-0.8-0.3-1.4-0.6-1.6l-0.6,0.1v3.6h-2.4v-9h3c1.9,0,3.3,0.4,3.3,2.6    c0,1.2-0.6,1.9-1.4,2.3c0.6,0.3,0.9,1,1.1,2l0.5,2.1H126.1z M125,58.7h-0.4v2.6c1.2-0.1,1.5-0.3,1.5-1.4    C126.1,58.9,125.7,58.7,125,58.7z"/>
		<path class="st2" d="M131.7,66.4c-1.1,0-2-0.3-2-0.3v-1.6c0,0,1.2,0.3,1.8,0.3c0.7,0,1.2-0.2,1.2-0.9c0-0.5-0.3-0.8-0.8-1.1    l-0.8-0.6c-0.6-0.5-1.4-1.1-1.4-2.4c0-2,1.7-2.6,3.2-2.6c1.2,0,2,0.3,2,0.3V59c0,0-0.9-0.3-1.7-0.3c-0.6,0-1,0.3-1,0.9    c0,0.6,0.4,0.8,0.9,1.1l0.7,0.5c0.7,0.5,1.4,1.2,1.4,2.5C135,66,133.3,66.4,131.7,66.4z"/>
		<path class="st2" d="M140.9,66.3v-9h2.4v9H140.9z M145.3,66.4l-1.9-4.9l1.7-4.2h2.7l-2.1,4.1l2.2,4.8L145.3,66.4z"/>
	</g>
	<g>
		<path class="st2" d="M151.8,66.4c-1.6,0-3.5-0.4-3.5-4.6c0-4.1,1.9-4.6,3.5-4.6c1.5,0,3.5,0.5,3.5,4.6    C155.3,65.9,153.5,66.4,151.8,66.4z M151.8,58.6c-0.8,0-1.1,0.5-1.1,3.1c0,2.7,0.4,3.1,1.1,3.1c0.7,0,1.1-0.4,1.1-3.1    C152.9,59.3,152.6,58.6,151.8,58.6z"/>
		<path class="st2" d="M163.5,66.3l-0.1-3c0-1.2,0.2-2.9,0.2-2.9s-0.6,1.3-1.1,2.2l-1.2,2l-1.2-2.1c-0.4-0.8-1-2.1-1-2.1    s0.2,1.8,0.2,3.1l-0.1,3h-2.4l0.4-9h2.1l2.1,3.9l2.1-3.9h2.1l0.4,9H163.5z"/>
		<path class="st2" d="M174.3,66.3l-0.1-3c0-1.2,0.2-2.9,0.2-2.9s-0.6,1.3-1.1,2.2l-1.2,2l-1.2-2.1c-0.4-0.8-1-2.1-1-2.1    s0.2,1.8,0.2,3.1l-0.1,3h-2.4l0.4-9h2.1l2.1,3.9l2.1-3.9h2.1l0.4,9H174.3z"/>
		<path class="st2" d="M181.8,66.4c-2.2,0-3.2-0.7-3.2-2.6v-6.5h2.4V64c0,0.6,0.2,0.8,0.8,0.8c0.6,0,0.8-0.3,0.8-0.8v-6.7h2.4v6.5    C185.1,65.7,183.9,66.4,181.8,66.4z"/>
		<path class="st2" d="M191.6,66.3l-1.2-2.5c-0.7-1.4-1.3-3.2-1.3-3.2s0.3,1.8,0.3,3.2v2.5h-2.3v-9h2.2l1.2,2.5c0.7,1.4,1.2,3,1.2,3    s-0.3-1.7-0.3-3.2v-2.3h2.3v9H191.6z"/>
		<path class="st2" d="M199.8,63v-1.7h5.4V63H199.8z"/>
		<path class="st2" d="M214.8,66.4c-1.5,0-3.8-0.1-3.8-4.5c0-4.2,2.6-4.7,4.3-4.7c1.4,0,2.3,0.4,2.3,0.4v1.6c0,0-1.1-0.4-2.3-0.4    c-1.1,0-1.9,0.5-1.9,3.1c0,2.7,0.8,2.9,1.4,2.9c0.3,0,0.8-0.1,0.8-0.1v-2.4h-1l-0.1-1.5h3.5v5.1C218,65.9,216.2,66.4,214.8,66.4z"/>
		<path class="st2" d="M223.9,66.3l-0.3-2c-0.1-0.8-0.3-1.4-0.6-1.6l-0.6,0.1v3.6H220v-9h3c1.9,0,3.3,0.4,3.3,2.6    c0,1.2-0.6,1.9-1.4,2.3c0.6,0.3,0.9,1,1.1,2l0.5,2.1H223.9z M222.8,58.7h-0.4v2.6c1.2-0.1,1.5-0.3,1.5-1.4    C223.9,58.9,223.6,58.7,222.8,58.7z"/>
		<path class="st2" d="M232.3,66.3l-0.3-1.7h-2.1l-0.3,1.7h-2.5l2.5-9h2.8l2.5,9H232.3z M231.4,61.1c-0.1-0.9-0.5-2.9-0.5-2.9    s-0.3,2-0.5,2.9l-0.3,1.9h1.6L231.4,61.1z"/>
	</g>
	<g>
		<path class="st2" d="M240.5,58.9h-1.8v7.3h-2.4v-7.3h-2.1v-1.7h6.6L240.5,58.9z"/>
		<path class="st2" d="M241.6,66.3v-9h2.4v9H241.6z"/>
		<path class="st2" d="M247.7,66.4c-1.1,0-2-0.3-2-0.3v-1.6c0,0,1.2,0.3,1.8,0.3c0.7,0,1.2-0.2,1.2-0.9c0-0.5-0.3-0.8-0.8-1.1    l-0.8-0.6c-0.6-0.5-1.4-1.1-1.4-2.4c0-2,1.7-2.6,3.2-2.6c1.2,0,2,0.3,2,0.3V59c0,0-0.9-0.3-1.7-0.3c-0.6,0-1,0.3-1,0.9    c0,0.6,0.4,0.8,0.9,1.1l0.7,0.5c0.7,0.5,1.4,1.2,1.4,2.5C251.1,66,249.3,66.4,247.7,66.4z"/>
	</g>
	<g>
		<path class="st2" d="M261.1,66.3H258l-2.2-9h2.6l0.6,4.5c0.1,0.9,0.4,3.5,0.4,3.5s0.3-2.6,0.4-3.5l0.6-4.5h2.6L261.1,66.3z"/>
		<path class="st2" d="M268.5,66.3l-0.3-1.7H266l-0.3,1.7h-2.5l2.5-9h2.8l2.5,9H268.5z M267.6,61.1c-0.1-0.9-0.5-2.9-0.5-2.9    s-0.3,2-0.5,2.9l-0.3,1.9h1.6L267.6,61.1z"/>
	</g>
	<g>
		<path class="st2" d="M275.9,66.3l-0.3-2c-0.1-0.8-0.3-1.4-0.6-1.6l-0.6,0.1v3.6H272v-9h3c1.9,0,3.3,0.4,3.3,2.6    c0,1.2-0.6,1.9-1.4,2.3c0.6,0.3,0.9,1,1.1,2l0.5,2.1H275.9z M274.8,58.7h-0.4v2.6c1.2-0.1,1.5-0.3,1.5-1.4    C275.9,58.9,275.6,58.7,274.8,58.7z"/>
		<path class="st2" d="M280.8,66.4c-1,0-1.8-0.2-1.8-0.2v-1.5c0,0,0.8,0.1,1.1,0.1c0.3,0,0.5-0.1,0.5-0.6v-6.9h2.4v7.1    C283,66.1,282,66.4,280.8,66.4z"/>
		<path class="st2" d="M290.1,58.9h-2.7v1.9h2.5v1.5h-2.5v2.3h2.8v1.6H285v-9h5.3L290.1,58.9z"/>
		<path class="st2" d="M300.3,66.3h-3.1l-2.2-9h2.6l0.6,4.5c0.1,0.9,0.4,3.5,0.4,3.5s0.3-2.6,0.4-3.5l0.6-4.5h2.6L300.3,66.3z"/>
		<path class="st2" d="M308.5,58.9h-2.7v1.9h2.5v1.5h-2.5v2.3h2.8v1.6h-5.2v-9h5.3L308.5,58.9z"/>
		<path class="st2" d="M313.2,66.4c-1.5,0-3.5-0.3-3.5-4.5c0-4.2,2.3-4.7,3.7-4.7c1,0,1.6,0.3,1.6,0.3V59c0,0-0.8-0.3-1.5-0.3    c-0.8,0-1.5,0.7-1.5,3.1c0,2.3,0.4,2.9,1.3,2.9c0.8,0,1.7-0.3,1.7-0.3v1.6C315.1,66.1,314.2,66.4,313.2,66.4z"/>
		<path class="st2" d="M316.4,66.3v-9h2.4v9H316.4z M320.7,66.4l-1.9-4.9l1.7-4.2h2.7l-2.1,4.1l2.2,4.8L320.7,66.4z"/>
		<path class="st2" d="M328.8,66.3l-0.3-1.7h-2.1l-0.3,1.7h-2.5l2.5-9h2.8l2.5,9H328.8z M327.9,61.1c-0.1-0.9-0.5-2.9-0.5-2.9    s-0.3,2-0.5,2.9l-0.3,1.9h1.6L327.9,61.1z"/>
		<path class="st2" d="M338.3,66.4c-1.1,0-2-0.3-2-0.3v-1.6c0,0,1.2,0.3,1.8,0.3c0.7,0,1.2-0.2,1.2-0.9c0-0.5-0.3-0.8-0.8-1.1    l-0.8-0.6c-0.6-0.5-1.4-1.1-1.4-2.4c0-2,1.7-2.6,3.2-2.6c1.2,0,2,0.3,2,0.3V59c0,0-0.9-0.3-1.7-0.3c-0.6,0-1,0.3-1,0.9    c0,0.6,0.4,0.8,0.9,1.1l0.7,0.5c0.7,0.5,1.4,1.2,1.4,2.5C341.7,66,339.9,66.4,338.3,66.4z"/>
		<path class="st2" d="M348.2,58.9h-2.7v1.9h2.5v1.5h-2.5v2.3h2.8v1.6h-5.2v-9h5.3L348.2,58.9z"/>
	</g>
	<g>
		<path class="st2" d="M352.6,66.3H350v-9h2.6c2.1,0,4,0.4,4,4.4C356.6,65.7,354.8,66.3,352.6,66.3z M352.7,58.8h-0.3v5.9h0.3    c1.1,0,1.5-0.4,1.5-3C354.2,59.2,353.7,58.8,352.7,58.8z"/>
		<path class="st2" d="M362.3,66.3l-0.3-1.7h-2.1l-0.3,1.7h-2.5l2.5-9h2.8l2.5,9H362.3z M361.4,61.1c-0.1-0.9-0.5-2.9-0.5-2.9    s-0.3,2-0.5,2.9l-0.3,1.9h1.6L361.4,61.1z"/>
	</g>
	<g>
		<path class="st2" d="M370.4,66.3l-1.2-2.5c-0.7-1.4-1.3-3.2-1.3-3.2s0.3,1.8,0.3,3.2v2.5h-2.3v-9h2.2l1.2,2.5c0.7,1.4,1.2,3,1.2,3    s-0.3-1.7-0.3-3.2v-2.3h2.3v9H370.4z"/>
		<path class="st2" d="M379.8,66.3v-6.5l-1.6,0.7v-1.6l2.2-1.1h1.9v8.4H379.8z"/>
		<path class="st2" d="M384.5,66.7v-1.4c1.9-0.1,3.2-0.6,3.4-2.1c0,0-0.6,0.4-1.6,0.4c-1.5,0-2.8-0.8-2.8-2.8c0-2.1,1.3-3.1,3.3-3.1    c2.1,0,3.5,1.2,3.5,4C390.2,65.2,388.2,66.7,384.5,66.7z M386.9,59c-0.8,0-1,0.6-1,1.7c0,1,0.2,1.5,0.9,1.5c0.6,0,1.1-0.3,1.1-0.3    C387.9,60.3,387.8,59,386.9,59z"/>
		<path class="st2" d="M394.7,66.4c-2.3,0-3.5-0.6-3.5-2.3c0-1.6,1.5-2.1,1.9-2.2c-0.3-0.1-1.7-0.4-1.7-2c0-1.7,1.3-2.3,3.2-2.3    c1.9,0,3.2,0.6,3.2,2.3c0,1.4-1.3,1.8-1.8,1.9c0.5,0.1,2,0.5,2,2.1C398.2,65.7,396.8,66.4,394.7,66.4z M394.7,62.7l-0.3-0.1    c0,0-0.8,0.4-0.8,1.4c0,0.7,0.3,1.2,1.1,1.2c0.7,0,1.1-0.4,1.1-1.2C395.9,63.2,395.5,62.9,394.7,62.7z M394.7,58.9    c-0.7,0-0.9,0.5-0.9,1.1c0,0.6,0.3,1,0.7,1.1l0.4,0.1c0,0,0.7-0.3,0.7-1.3C395.6,59.4,395.5,58.9,394.7,58.9z"/>
		<path class="st2" d="M402.6,66.4c-1.8,0-3.3-0.7-3.3-4.4c0-3.8,1.7-4.3,3.3-4.3c1.6,0,3.3,0.5,3.3,4.3    C405.8,65.8,404.3,66.4,402.6,66.4z M402.6,59c-0.8,0-0.9,0.7-0.9,3c0,2.3,0.2,3,0.9,3c0.7,0,0.9-0.7,0.9-3    C403.5,59.7,403.4,59,402.6,59z"/>
	</g>
</g>
</svg>