<svg aria-labelledby="logo-title" xmlns="http://www.w3.org/2000/svg" preserveAspectRatio="xMinYMid meet" width="480" height="96" viewBox="0 0 480 96">
<title id="logo-title">Hudiksvalls Tidning</title>
<path d="M135.7 17.8v61.7H0V17.8h135.7ZM56.8 24H32.6v11h4.7v27.4h-4.7v10.8h24.2V62.3h-3V54h8.6v8.3h-3v10.8h24.2V62.3h-4.7V34.9h4.7V24.1H59.4V35h3v8.4h-8.6V35h3V24.1Zm73.2 0H86.6v20h8l2.2-9h3.2v27.3h-4.7v10.8h26.5V62.3h-5.2V34.9h3.2l2 9h8.2V24.2Zm55.6-5.3v6H183v15.1h2.6v6h-13.3v-6h1.6v-4.6h-4.7v4.6h1.6v6h-13.3v-6h2.6V24.7h-2.6v-5.9h13.3v6h-1.6v4.6h4.7v-4.7h-1.6v-5.9h13.3Zm28.2 0v6h-2.6v10.5c0 3 0 3.8-.6 5.1a8.6 8.6 0 0 1-2.3 3.2c-2.1 2-4.5 2.8-7.7 2.8-7 0-10.5-3.7-10.5-10.8V24.7h-2.6v-5.9H202v6h-2.6v10.7c0 3.2 1.1 4.7 3.4 4.7s3.4-1.5 3.4-4.6v-11h-2.6v-5.9h10.3Zm15 0c8.9 0 14.2 5 14.2 13.6 0 8.2-5.4 13.5-13.5 13.5h-14.2v-6h2.6V24.7h-2.6v-5.9Zm-1.4 6h-.3v15.1c2.7 0 3.3-.3 4.3-1.7 1-1.5 1.5-3.4 1.5-6 0-4-1.2-6.6-3.3-7.2a7 7 0 0 0-2.2-.3Zm32.3-6v6H257v15.1h2.6v6h-14.3v-6h2.5V24.7h-2.5v-5.9h14.3Zm29.5 0v6h-2.5l-5 6.4 7.5 8.7h2.5v6h-12.8v-6l-4.8-6.1v6.1h2.2v6h-14v-6h2.6V24.7h-2.6v-5.9h14v6H274v6.8l4.8-6.9v-5.9h10.3Zm21.1 0v9h-5c-.6-2.3-2-3.5-3.8-3.5-.8 0-1.5.5-1.5 1.2 0 1 .6 1.4 3.2 2.3l1.6.5c2.9 1 4.3 1.9 5.4 3.1 1.2 1.3 2 3.7 2 6 0 5.1-3.6 9-8.4 9-2.2 0-3.7-.7-5-2.4l-.7 1.8H293v-9h5.1c1.1 2.2 2.5 3.2 4.1 3.2 1 0 1.8-.6 1.8-1.5s-.7-1.4-2.6-2a27 27 0 0 1-4.9-1.6c-1-.7-2-1.3-2.4-2a9.6 9.6 0 0 1-1.7-6c0-5.3 2.9-8.6 7.6-8.6a7 7 0 0 1 5.2 1.9l.5-1.4h4.6Zm16.5 0v6h-2l3.4 12.6 2.5-8c.5-1.5.6-2.4.6-3 0-1.2-.4-1.6-1.5-1.6h-.8v-6h11.3v6h-.6c-1.2 0-2 .4-2.3 1.7l-.7 2.1-6 17.3h-9.5l-6-21.2h-2.7v-5.9h14.3Zm29.6 0L362 40h2.7v6h-14.3v-6h2.2l-.8-3h-5.4l-.2 1.4c0 1 .6 1.7 1.6 1.7h.7V46h-11.4v-6l.7.1h.2c1.4 0 2-.7 2.6-3.4l.1-.3 4.5-17.5h11.2Zm-7.5 6.4-1.4 6.5h3l-1.6-6.5Zm31.1-6.4v6h-2.5v15.1h3.3l1.5-5.8h4.4v12h-21v-6h2.6V24.7h-2.6v-5.9H380Zm22.6 0v6h-2.5v15.1h3.3l1.5-5.8h4.5v12h-21v-6h2.5V24.7h-2.6v-5.9h14.3Zm25.8 0v9h-5c-.6-2.3-2-3.5-3.8-3.5-.8 0-1.5.5-1.5 1.2 0 1 .6 1.4 3.2 2.3l1.6.5c2.9 1 4.3 1.9 5.4 3.1a9.4 9.4 0 0 1 2 6c0 5.1-3.6 9-8.4 9-2.2 0-3.7-.7-5-2.4l-.7 1.8h-5.1v-9h5.1c1.1 2.2 2.5 3.2 4.1 3.2 1 0 1.8-.6 1.8-1.5s-.7-1.4-2.7-2a26.3 26.3 0 0 1-4.8-1.6c-1-.7-2-1.3-2.5-2a9.7 9.7 0 0 1-1.7-6c0-5.3 3-8.6 7.7-8.6a7 7 0 0 1 5.2 1.9l.5-1.4h4.6ZM181 51.8v11h-4.5l-1.1-5h-1.8v15.1h2.9v6h-14.6v-6h2.5V57.8h-1.7l-1.3 5H157v-11h24Zm16.1 0v6h-2.5v15.1h2.5v6h-14.3v-6h2.6V57.8h-2.6v-6H197Zm16.1 0c9 0 14.2 5 14.2 13.6 0 8.2-5.3 13.5-13.5 13.5h-14.1v-6h2.6V57.8h-2.6v-6Zm-1.4 6h-.3v15.1c2.8 0 3.4-.3 4.3-1.7 1-1.4 1.5-3.4 1.5-6 0-4-1.2-6.6-3.2-7.2a7 7 0 0 0-2.3-.2Zm46.2-6v6h-.5c-1.5 0-2 1-2 4v17h-10l-8-15.3v6.1c0 2.5.6 3.4 2.2 3.4h.6v5.9h-10.8v-6h.5c1.8 0 2.4-.6 2.4-3v-12h-2.6v-6.2h11.8l8.7 17V61c0-2.6-.4-3.1-2.3-3.1h-.4v-6H258Zm16.5 0v6H272v15.1h2.5v6h-14.2v-6h2.5V57.8h-2.5v-6h14.2Zm31.7 0v6h-.6c-1.5 0-2 1-2 4v17h-9.9l-8-15.3v6.1c0 2.5.6 3.4 2.2 3.4h.5v5.9h-10.7v-6h.4c1.9 0 2.4-.6 2.4-3v-12h-2.6v-6.2h11.9l8.7 17V61c0-2.6-.4-3.1-2.3-3.1h-.5v-6h10.5Zm26.6 0v11.4H328v-.5c0-3.1-1.7-5.1-4.5-5.1-3.6 0-5.4 2.8-5.4 8.3 0 5.2 1.7 7.7 5.2 7.7 2 0 3.1-1 3.1-2.5 0-1-.4-1.5-1.4-1.5l-1.1.1v-5.2h10V79h-4.5l-.6-1.5c-1.8 1.5-3.6 2-6.7 2-3.9 0-7.2-1-9.5-3.1a15 15 0 0 1-4.6-11c0-8.3 5.5-14 13.4-14 2.6 0 4 .5 5.5 1.7l.6-1.2h5.3Z" fill="#BA3738" fill-rule="evenodd"></path>
</svg>
