<svg aria-labelledby="logo-title" xmlns="http://www.w3.org/2000/svg" preserveAspectRatio="xMinYMid meet" width="480" height="96" viewBox="0 0 480 96">
<title id="logo-title">Söderhamns Kuriren</title>
<g fill="none" fill-rule="evenodd">
<path d="M35.1 17H0v9.3h3.3c4.8 0 5.2.8 5.2 5.5V67c0 4.6-.4 5.6-5.2 5.6H0v9.1h36.7v-9.1h-2.1c-4.7 0-5.2-1.1-5.2-5.6v-5.4L39 54l9.3 14.4c.6.8.8 1.6.8 2.3 0 1.4-1.3 1.9-4.5 1.9h-3v9.1h39.7v-9.1h-4c-3 0-4.8-1.3-6.9-4.4l-17.2-26 13-11.2c3.7-3.2 6.8-4.7 9-4.7h3.3V17H42.7v9.2H48c2.4 0 3.7.4 3.7 1.6 0 .8-.5 1.7-1.5 2.6L29.5 47.8v-16c0-4.3 0-5.5 5-5.5h.6V17Zm79.5 58.2v6.6h25v-8.5h-2.1c-3.7 0-4.5-.8-4.5-4.5V36.3h-25.2v8.5h2c3.7 0 4.3.8 4.3 4.5v15c0 5.8-2.7 9.2-7 9.2s-6.2-2.6-6.2-7.8V36.3H76v8.5h1.6c3.7 0 4.5.8 4.5 4.5v17.4c0 11.8 3.7 16.9 15.8 16.9 6.9 0 12.6-3 16.7-8.4Zm51.2-34.5v-4.4h-24.5v8.5h1.7c3.7 0 4.5.8 4.5 4.5v19.5c0 3.7-.8 4.5-4.5 4.5h-1.7v8.5H174v-8.5h-3c-3.8 0-4.6-.8-4.6-4.5V55.4c0-8.7 3.4-13.5 8.2-13.5.7 0 1.4 0 2.1.3-2.8 1.4-4.2 3.4-4.2 6.2 0 4 3.2 7 7.5 7 5.3 0 8.9-3.7 8.9-9.6 0-6.6-4.3-11.2-11.3-11.2-4.5 0-8.4 2-11.7 6.1Zm48.8 28.1V36.3h-25.2v8.5h1.9c3.7 0 4.5.8 4.5 4.5v19.5c0 3.7-.8 4.5-4.5 4.5h-2v8.5h31.5v-8.5H219c-3.7 0-4.5-.8-4.5-4.5Zm32.6-28v-4.5h-24.5v8.5h1.6c3.7 0 4.5.8 4.5 4.5v19.5c0 3.7-.8 4.5-4.5 4.5h-1.6v8.5h32.5v-8.5h-3c-3.8 0-4.5-.8-4.5-4.5V55.4c0-8.7 3.3-13.5 8.2-13.5.7 0 1.3 0 2.1.3-2.9 1.4-4.2 3.4-4.2 6.2 0 4 3.2 7 7.5 7 5.2 0 8.9-3.7 8.9-9.6 0-6.6-4.3-11.2-11.3-11.2-4.5 0-8.5 2-11.7 6.1Zm41.5 12.5c0-6.7 2.7-10.2 7-10.2s7 3.3 7 9.5v.7h-14ZM319 66h-11.8c-1 5.6-4.4 8.6-9.3 8.6-5.8 0-9.2-4.2-9.2-11.9v-1h30v-1.6c0-16.5-8.4-25.5-23.8-25.5-15.6 0-25.6 9.5-25.6 24.5s9.8 24.5 25.7 24.5c14 0 21.8-5.7 24-17.6Zm58.2 2.8V51.9c0-11.9-3.9-16.9-16-16.9a20 20 0 0 0-16.7 8.3v-7h-25.1v8.5h2.3c3.7 0 4.5.8 4.5 4.5v19.5c0 3.7-.8 4.5-4.5 4.5h-2.3v8.5H350v-8.5h-1c-3.3 0-4-1-4-4.5v-15c0-5.7 2.7-9.2 7-9.2 4.2 0 6.2 2.6 6.2 7.8v16.4c0 3.6-.7 4.5-4 4.5h-1v8.5h30.2v-8.5h-2c-3.7 0-4.3-.8-4.3-4.5Z" fill="#C52038"></path>
<path d="M85.5 25.8v5h1.8l.5-.8c1.4.8 2.8 1.1 4.4 1.1 3.5 0 5.6-1.8 5.6-4.4 0-2.6-1.8-3.8-5.5-4.6-2-.5-3-.5-3-1.5 0-.8.7-1.5 2-1.5 2 0 3.2 1 3.6 2.8h2.2v-4.6h-1.9l-.3.7c-1.4-.7-2.8-1-4.4-1-3.3 0-5.4 1.8-5.4 4.5 0 1.2.5 2.2 1.6 3 .5.4 1.6.8 3.3 1.3 2.1.6 3.5.7 3.5 1.9 0 .8-.8 1.4-2 1.4-2 0-3.5-1.2-4.1-3.3h-2Zm17-11.8c0 .9.7 1.6 1.6 1.6.9 0 1.5-.7 1.5-1.6 0-.9-.6-1.6-1.5-1.6-.8 0-1.6.8-1.6 1.6Zm4.2 0c0 .9.7 1.6 1.6 1.6.9 0 1.5-.7 1.5-1.6 0-.9-.7-1.6-1.5-1.6-.9 0-1.6.8-1.6 1.6Zm-8.2 10c0 4.4 2.8 7.1 7.7 7.1 4.8 0 7.6-2.7 7.6-7 0-4.4-2.8-7-7.6-7-4.9 0-7.7 2.6-7.7 7Zm7.7-5c1.8 0 2.5 1.7 2.5 5 0 3.5-.7 5-2.5 5-1.9 0-2.6-1.6-2.6-5 0-3.3.7-5 2.6-5Zm14.3 9.8v-9.5h1c2 0 2.8 1.5 2.8 4.7 0 3.3-.7 4.8-2.7 4.8h-1Zm1-11.4h-7.1v1.9h.6c1 0 1.1.2 1.1 1.1v7.4c0 .8 0 1-1 1h-.7v2h7.2c5.2 0 7.8-2.2 7.8-6.8 0-4.5-2.6-6.6-7.8-6.6Zm22.3 0h-13.9v1.9h.7c1 0 1 .2 1 1.1v7.4c0 .8 0 1-1 1h-.7v2h14v-5.6h-2.2c0 1.3-.3 2.2-.7 2.9-.5.7-1.4.7-2.7.7H136v-4.1h.5c1.3 0 1.5.5 1.6 2.2h1.6v-6h-1.6c0 1.5-.4 2-1.6 2h-.5v-3.6h2c1.2 0 2 0 2.7.7.5.5.7 1.2 1 2.4h2v-5Zm7.1 5.5v-3.5h1.3c1.5 0 2.1.4 2.1 1.8 0 1.3-.7 1.7-2.2 1.7h-1.2Zm-4.3 4.8c0 1 0 1.1-1 1.1h-.7v2h7.9v-2h-.7c-1 0-1.1-.2-1.1-1.1v-3h1.2c1.6 0 1.8.4 1.8 2V28c0 2.2 1 3.1 3.4 3.1 2.3 0 3.2-1 3.2-3.5V27h-1.3v.4c0 1-.2 1.4-.6 1.4-.4 0-.5-.4-.5-1.3 0-2.6-.1-3.6-2.3-3.9 1.8-.3 2.8-1.4 2.8-2.9 0-2.2-1.6-3.3-4.8-3.3h-9v1.9h.6c1 0 1.1.2 1.1 1.1v7.3Zm21.3-10.3h-7.3v1.9h.6c1 0 1.1.2 1.1 1.1v7.3c0 .9 0 1.1-1 1.1h-.7v2h7.3v-2h-.2c-1 0-1-.2-1-1.1v-3h3.7v3c0 .9-.1 1.1-1 1.1h-.2v2h7.3v-2h-.7c-1 0-1-.2-1-1.1v-7.3c0-1 0-1.1 1-1.1h.7v-1.9h-7.3v1.9h.2c.9 0 1 .2 1 1.1v2.4h-3.7v-2.4c0-.9 0-1.1 1-1.1h.2v-1.9Zm15.3 13.3h8v-1.9h-.7c-1 0-1-.3-1.4-1.4l-3-10h-4.9l-3.4 10c-.3 1-.8 1.4-1.5 1.4h-.5v2h6v-2h-.7c-.6 0-1-.1-1-.4l.2-.7.5-1.3h3.5l.5 1.5v.5c0 .4-.2.4-1 .4h-.6v2Zm.5-6.2h-2.3l1-4 1.3 4Zm26.3-7.1h-7.7l-2.4 8-2.2-8h-7.4v1.9h.6c1 0 1 .2 1 1.1v7.3c0 1 0 1.1-1 1.1h-.6v2h5.9v-2h-.5c-1 0-1-.2-1-1.1v-8.1l3.1 11.1h3.1l3.4-11.1v8c0 1 0 1.2-1 1.2h-.6v2h7.3v-2h-.7c-1 0-1-.2-1-1.1v-7.3c0-1 0-1.1 1-1.1h.7v-1.9Zm6.7 0h-6.5v1.9h.7c1 0 1 .2 1 1.1v7.3c0 1 0 1.1-1 1.1h-.7v2h5.8v-2h-.5c-1 0-1.1-.2-1.1-1.1v-6.5l5.1 9.5h4.5V20.4c0-1 .1-1.1 1.1-1.1h.5v-1.9h-5.8v1.9h.7c1 0 1.1.2 1.1 1.1v6l-4.9-9Zm9.9 8.4v5h1.8l.5-.8c1.4.8 2.8 1.1 4.4 1.1 3.5 0 5.6-1.8 5.6-4.4 0-2.6-1.8-3.8-5.5-4.6-2-.5-3-.5-3-1.5 0-.8.7-1.5 2-1.5 2 0 3.2 1 3.6 2.8h2.2v-4.6h-1.9l-.3.7c-1.4-.7-2.8-1-4.4-1-3.3 0-5.4 1.8-5.4 4.5 0 1.2.5 2.2 1.6 3 .5.4 1.6.8 3.3 1.3 2.1.6 3.5.7 3.5 1.9 0 .8-.8 1.4-2 1.4-2 0-3.5-1.2-4.1-3.3h-2Z" fill="#000"></path>
</g>
</svg>
