<?xml version="1.0" encoding="UTF-8"?>
<svg width="32px" height="32px" viewBox="0 0 32 32" version="1.1" xmlns="http://www.w3.org/2000/svg" xmlns:xlink="http://www.w3.org/1999/xlink">
    <title>Exporteras/Favicon/GD/favicon</title>
    <g id="Exporteras" stroke="none" stroke-width="1" fill="none" fill-rule="evenodd">
        <g id="Logo/App/AT">
            <g id="Colors/GD-P:-#265A91" fill="#265A91">
                <rect id="Rectangle" x="0" y="0" width="32" height="32"/>
            </g>
            <g id="Logo/Only-logo/GD" transform="translate(5.125000, 10.375000)" fill="#FFFFFF">
                <path d="M9.48902314,-1.36779477e-13 L9.4921011,4.17888505 L9.06477854,4.17888505 C8.26004757,1.81580494 7.26920301,0.64212186 5.76787984,0.64212186 C3.87647736,0.64212186 2.88393992,2.53035426 2.88393992,5.54784074 C2.88393992,8.50390465 3.87647736,10.6546674 5.50440702,10.6546674 C6.51238552,10.6546674 7.1634753,10.0360397 7.47347653,9.199976 L7.47347653,9.199976 L7.47347653,7.90646771 C7.47347653,7.54566125 7.33245496,6.83418307 5.86093664,6.83418307 L5.86093664,6.83418307 L5.86093664,6.48975596 L9.88931101,6.48975596 L9.89172207,11.2165816 L9.6843706,11.215865 L8.69865596,10.2214335 C7.76803669,10.7321622 6.55855482,11.2117702 5.1475696,11.2117702 C2.37207624,11.2117702 2.66453526e-14,9.47893688 2.66453526e-14,5.82675043 C2.66453526e-14,2.40607591 2.3412967,0.147107073 5.64368442,0.147107073 C6.86650408,0.147107073 7.76459964,0.456779233 8.47663291,0.842871317 L8.47663291,0.842871317 L9.22898737,-1.36779477e-13 L9.48902314,-1.36779477e-13 Z M15.8736736,0.409893333 C18.0907749,0.409893333 21.75,1.52415007 21.75,5.76486718 C21.75,9.37057721 18.6956953,10.9795416 15.5791134,10.9795416 L10.5550211,10.9795416 L10.5550211,10.6234954 C10.8653814,10.6084469 11.4699428,10.5309521 11.6718052,10.4534572 C12.0283349,10.3141816 12.1213917,10.0359373 12.1213917,9.69524672 L12.1213917,1.81846659 C12.1213917,1.47772484 12.0283349,1.19953175 11.6718052,1.02918647 C11.3149678,0.858790002 10.8807712,0.797009126 10.6015495,0.765939539 L10.6015495,0.409893333 L15.8736736,0.409893333 Z M15.5955292,0.905215233 C15.3163075,0.905215233 14.9129417,0.920929176 14.6340791,0.93628482 L14.6340791,9.49419015 C14.6340791,10.1595502 15.0836655,10.4845268 15.8743918,10.4845268 C17.9676054,10.4845268 18.7737215,8.53523016 18.7737215,5.74915324 C18.7737215,2.93272333 17.5799885,0.905215233 15.5955292,0.905215233 Z" id="GD"/>
            </g>
        </g>
    </g>
</svg>