<?xml version="1.0" encoding="UTF-8"?>
<svg width="32px" height="32px" viewBox="0 0 32 32" version="1.1" xmlns="http://www.w3.org/2000/svg" xmlns:xlink="http://www.w3.org/1999/xlink">
    <title>Exporteras/Favicon/HT/favicon</title>
    <g id="Exporteras" stroke="none" stroke-width="1" fill="none" fill-rule="evenodd">
        <g id="Logo/App/AT">
            <g id="Färger/HT/Primär-#BF243A" fill="#BA3738">
                <rect id="Rectangle" x="0" y="0" width="32" height="32"/>
            </g>
            <g id="Logga/Orginal-utan-marginaler/HT" transform="translate(3.187500, 9.531250)" fill="#FFFFFF">
                <path d="M13.4132987,2.84466985 L12.1956653,2.84466985 L12.1956653,10.0454326 L13.4132987,10.0454326 L13.4132987,12.8898828 L7.05845163,12.8898828 L7.05845163,10.0454326 L7.84102769,10.0454326 L7.84102769,7.85788417 L5.59160205,7.85788417 L5.59160205,10.0454326 L6.37384861,10.0454326 L6.37384861,12.8898828 L0,12.8898828 L0,10.0454326 L1.2368546,10.0454326 L1.2368546,2.84466985 L0,2.84466985 L0,0 L6.37384861,0 L6.37384861,2.84466985 L5.59160205,2.84466985 L5.59160205,5.05188144 L7.84102769,5.05188144 L7.84102769,2.84466985 L7.05845163,2.84466985 L7.05845163,0 L13.4132987,0 L13.4132987,2.84466985 Z M25.625,5.2192925 L23.479808,5.2192925 L22.9579808,2.84466985 L22.1076364,2.84466985 L22.1076364,10.0454326 L23.479808,10.0454326 L23.479808,12.8898828 L16.5158147,12.8898828 L16.5158147,10.0454326 L17.7334481,10.0454326 L17.7334481,2.84466985 L16.9025445,2.84466985 L16.3032835,5.2192925 L14.2160845,5.2192925 L14.2160845,0 L25.625,0 L25.625,5.2192925 Z" id="HT"/>
            </g>
        </g>
    </g>
</svg>