<?xml version="1.0" encoding="UTF-8"?>
<svg width="32px" height="32px" viewBox="0 0 32 32" version="1.1" xmlns="http://www.w3.org/2000/svg" xmlns:xlink="http://www.w3.org/1999/xlink">
    <title>Exporteras/Favicon/LJP/favicon</title>
    <g id="Exporteras" stroke="none" stroke-width="1" fill="none" fill-rule="evenodd">
        <g id="Logo/App/AT">
            <g id="Färger/LJP/Primär-#009378" fill="#009378">
                <rect id="Rectangle" x="0" y="0" width="32" height="32"/>
            </g>
            <g id="Logga/Orginal-utan-marginaler/LJP" transform="translate(4.437500, 9.406250)" fill="#FFFFFF">
                <path d="M18.2831036,0.226462747 L14.5212515,0.226462747 L14.5212515,0.785402165 C15.7874041,0.785402165 15.9546964,1.81018148 15.9546964,2.38794616 L15.9546964,10.0648918 C15.9546964,11.6486105 14.6697276,11.4624115 14.6697276,11.4624115 L14.6697276,12.0025256 L19.400438,12.0025256 L19.400438,11.4624115 C18.2646296,11.4624115 18.0412311,10.6419719 18.0412311,10.3257074 L18.0412311,8.96549594 C18.9909312,8.96549594 23.125,8.72316336 23.125,5.08988601 C23.125,1.36316685 20.31319,0.226462747 18.2831036,0.226462747 Z M17.9197818,1.51205763 C17.9197818,1.51205763 21.1137297,1.81018148 21.1137297,5.14567726 C21.1137297,7.99650789 17.9197818,7.92189136 17.9197818,7.92189136 L17.9197818,1.51205763 Z M13.875,0.234195622 L13.875,0.907865007 L13.875,0.907865007 L13.8228821,0.9076555 C13.6022773,0.914171894 12.7566253,1.01688493 12.7566253,2.208799 L12.7566253,2.208799 L12.7566253,11.8721943 L12.7537355,11.9169989 C12.7537355,11.9169989 13.1056558,15.2786251 9.59897493,15.2786251 C9.59897493,15.2786251 8.65912922,15.3285503 7.78639241,14.9941158 L7.78639241,14.9941158 L7.78639241,12.6357929 L8.32358471,12.6357929 C8.32358471,12.6357929 8.32358471,14.3809327 9.63236883,14.3809327 C10.958171,14.3809327 10.7902382,12.3516037 10.7902382,11.7998668 L10.7902382,1.98797625 C10.7902382,1.69738632 10.7173496,0.896023787 9.59865384,0.896023787 L9.59865384,0.896023787 L9.59865384,0.234195622 L13.875,0.234195622 Z M5.07764682,0 L5.07764682,0.591983952 C5.07764682,0.591983952 3.40173811,0.690534668 3.40173811,2.46682635 L3.40173811,10.6067756 L7.24698924,10.6067756 C7.24698924,10.6067756 8.72593198,10.9027676 8.72593198,8.38632605 L9.1697846,8.38632605 L9.1697846,11.8892942 L0,11.8892942 L0,11.1494842 C0,11.1494842 1.40491071,11.3465856 1.40491071,9.52135843 L1.40491071,2.56537707 C1.40491071,1.7266765 1.1339127,0.64125931 0,0.64125931 L0,0 L5.07764682,0 Z" id="LJP"/>
            </g>
        </g>
    </g>
</svg>