<svg aria-labelledby="logo-title" xmlns="http://www.w3.org/2000/svg" preserveAspectRatio="xMinYMid meet" width="480" height="96" viewBox="0 0 480 96">
<title id="logo-title">Ljusdals-Posten</title>
<path d="M48 20.2v2.5h-.2c-.7 0-4 .3-4 4.8V64S45.1 76.4 32 76.4h-.6c-1.1 0-3.7-.1-6.1-1v-8.9h2v.1c0 .7.3 6.5 4.9 6.5 5 0 4.3-7.6 4.3-9.7V26.6c0-1-.4-4-4.5-4v-2.4h16Zm-30.1-.3v2s-6 .4-6 6.7v28.7h13.6s5.2 1 5.2-7.9h1.6v12.4H0v-2.6s5 .7 5-5.8V29c0-3-1-6.7-5-6.7V20h17.9Zm171.9 9c0-3-1-6.7-5-6.7v-2.3h18v2s-6 .4-6 6.7v28.7h13.6s5.2 1 5.2-7.9h1.5v12.4h-32.3v-2.6s5 .7 5-5.8V29M50.5 20.1v2.5s3.9-.5 3.9 3.6v25c0 4.8 3 11 13.6 11 10.5 0 11.7-8 11.7-10.5V26.1c0-1 .2-3.2 3.9-3.2v-2.7H70v2.4s5.2-.9 5.2 3.4v25.4c0 2-1.4 6.3-6.3 6.3s-6.6-4.4-6.6-7.1V25.7c0-2.1 2.3-3.4 4-3.4v-2.2H50.5m47.4 4.3c-3 0-4 1.8-4 3.1.1 1.9 1 2.7 4.1 4 1.9.7 7.6 1.2 12 5.4 4.2 4 4 10.2 4 10.2.2 11.6-7.6 14-13.4 14.6-4.4.4-12-.4-12-.4l-1.8-.1V47.4h1.4s-.1 3.2 1.3 5.4c1.9 3 4.2 5 10.6 5 4.8 0 7.8-3.4 7.5-7.8-.4-5.9-3.5-6.8-11.3-9.5-7.8-2.7-9.6-6.2-9.6-10.5.1-9.7 12-9 12-9 3.2 0 6.7.4 6.7.4h1.4v8.8h-1s-.4-.3-.8-1.5a6.5 6.5 0 0 0-5.8-4.3H98m134.1 0c-3 0-4 1.8-4 3.1.1 1.9 1 2.7 4.1 4 1.9.7 7.6 1.2 12 5.4 4.2 4 4 10.2 4 10.2.2 11.6-7.6 14-13.4 14.6-4.4.4-12-.4-12-.4l-1.8-.1V47.4h1.4s-.1 3.2 1.3 5.4c1.9 3 4.3 5 10.6 5 4.8 0 7.9-3.4 7.6-7.8-.4-5.9-3.6-6.8-11.4-9.5-7.8-2.7-9.6-6.2-9.6-10.5.1-9.7 12.1-9 12.1-9 3.2 0 6.7.4 6.7.4h1.3v8.8h-1s-.4-.3-.8-1.5a6.5 6.5 0 0 0-5.8-4.3H232M350 21c3.1 0 6.6.3 6.6.3h1.3v8.8h-1s-.3-.3-.7-1.5a6.5 6.5 0 0 0-5.8-4.3h-1.3c-3 0-4 1.8-4 3.1 0 1.9 1 2.7 4 4 2 .7 7.7 1.2 12 5.4 4 3.9 4 9.7 4 10.1.3 11.7-7.5 14.1-13.3 14.7a36 36 0 0 1-3.8.1h-.6c-3.8 0-7.6-.5-7.6-.5l-1.8-.1V47.4h1.4s-.2 3.2 1.2 5.4c2 3 4.3 5 10.7 5 4.8 0 7.8-3.4 7.5-7.8-.4-5.9-3.5-6.8-11.3-9.5-7.8-2.7-9.7-6.2-9.6-10.5 0-8.1 8.5-8.9 11.2-9h.9Zm44-.7v10h-1.4a5.5 5.5 0 0 0-5.3-5.6h-4.6v29.9c0 1.2.7 5 6 5v1.6h-19v-1.5c5.3 0 6-4 6-5.1V24.8h-4.9c-1.7 0-5 1.4-5.2 5.6H364v-10h30Zm-225.7 1 4.5 16.7.4 1.5 4.6 16.4c.6 1.8 1.6 4 3.7 4v1.7h-15V60s5.8.6 3.2-5.8h-14.4v.2h-.1c-.6 1.2-2.3 5.4 2.2 5.8V62H145v-2.3s4 .6 5.3-3l.9-2.7.2-.5 3.3-10.2.5-1.3 4.3-13.2c.4-1.6 1.5-5.7-4.7-5.7v-1.5Zm-42.1.1c3.9 0 21 2.1 21 22 0 18.3-15.3 18-17.6 18h-13.8v-2s4.4.6 4.4-4.8V31c0-3 .4-7.3-5.6-7.3v-2.2Zm1 3.8h-.1v32.4s13.3 1.5 13.3-14.6c0-17.5-12.8-17.8-13.3-17.8Zm35.6 5L156.4 49h12.1l-5.7-18.8Zm122-9.5c7 0 16.9 4 16.9 17 0 12.7-14.5 13.6-17.8 13.6V56c0 1.1.8 4 4.7 4v2h-16.5v-2s4.5.7 4.5-4.8V28.4c0-2-.6-5.7-5-5.7v-2Zm-1.3 4.5v22.4c.7 0 11.1 0 11.1-9.7 0-11.7-11.1-12.7-11.1-12.7Zm-11.9 9-3 9.7h-12.3l-1 1.8h-2.5l3-9.7h12.8l1.3-1.9h1.7ZM320.7 20h-1.5c-4 .3-13.5 4.5-13.5 21.3 0 17.3 9.6 20 13.6 20.2h1.2c4-.2 13.7-3 13.7-20.2 0-16.7-9.4-21-13.5-21.3m5.5 31.8c0 3.4-1.8 5.8-5.4 6.1h-1.4c-3.4-.4-5.1-2.7-5.1-6v-20c0-5.3 2.1-6.9 5.3-7.1h1.6c3 .2 5 2 5 7.1v20m89.9 4.6h-7.9V34.9c1.9-1 4.6-.2 5.7.7 1.1.8 2.5 2.9 6.5 3 3.6 0 4.7-3.3 4.7-5.3s-1.2.9-4 1c-3.6.2-4.4-2.7-7-3.3-3.5-.8-6 1.2-6 1.2l.1-8.3h7.9c6.8 0 6.5 5 6.5 5h1.8v-9.1h-28v1.7c3 0 4.5 2.4 4.5 4.7v29.3c0 4-4.5 3.7-4.5 3.7v1.5h28v-9.2h-1.8s.3 5-6.5 5m10.7-36.7v2s4.5-.3 4.5 5.6v27.3c0 1.7-1.2 4.4-4 4.4v1.7H440v-1.7s-4 0-4-4.8V33.5s0 1 2.6 4.8 8.7 9.8 10.3 14.1c1.6 4.3 2 8.6 2 8.6h5V24.9c0-1 .4-3.5 3.3-3.5v-1.8H445v2.1s5.5-.5 5.5 4.2v14.8s-2.4-5.3-5.3-7.7c-3-2.3-7-6-8-8.8-1-2.7-1.2-4.4-1.2-4.4h-9.2" fill-rule="evenodd"></path>
</svg>
