<?xml version="1.0" encoding="UTF-8" standalone="no"?>
<svg
   aria-labelledby="logo-title"
   preserveAspectRatio="xMinYMid"
   width="3031"
   height="491"
   viewBox="0 0 3031 491"
   version="1.1"
   id="svg1"
   sodipodi:docname="test.svg"
   xmlns:inkscape="http://www.inkscape.org/namespaces/inkscape"
   xmlns:sodipodi="http://sodipodi.sourceforge.net/DTD/sodipodi-0.dtd"
   xmlns="http://www.w3.org/2000/svg"
   xmlns:svg="http://www.w3.org/2000/svg">
  <sodipodi:namedview
     id="namedview1"
     pagecolor="#ffffff"
     bordercolor="#000000"
     borderopacity="0.25"
     inkscape:showpageshadow="2"
     inkscape:pageopacity="0.0"
     inkscape:pagecheckerboard="0"
     inkscape:deskcolor="#d1d1d1" />
  <defs
     id="defs1" />
  <path
     d="m 3030.604,0 v 490.873 h -923.517 a 365.962,365.962 0 0 0 17.465,-6.289 l 0.02,-0.008 c 33.542,-13.235 50.276,-36.79 50.276,-66.464 0,-44.274 -34.014,-72.272 -62.98,-73.677 -6.407,-0.236 -16.546,-0.713 -26.932,-1.187 l -1.89,-0.086 c -9.457,-0.43 -18.943,-0.845 -25.839,-1.063 -25.232,-0.923 -43.458,0.93 -43.458,-17.709 0,-5.307 3.595,-8.838 7.633,-12.46 l 0.566,-0.507 c 0.378,-0.338 0.76,-0.678 1.141,-1.02 0,0 0.61,-0.618 1.204,-0.584 16.739,3.46 42.852,0.849 49.064,0.14 39.872,-4.6 73.55,-31.705 73.55,-68.07 0,-15.71 -5.4,-31.4 -16.953,-44.944 l 6.976,0.33 h 34.079 V 179.42 h -62.88 l -0.242,-0.14 c -8.108,-4.645 -28.09,-10.585 -57.694,-10.585 -43.908,0 -97.19,21.454 -97.19,70.862 0,29.843 20.573,54.051 60.746,66.173 -21.489,4.907 -49.526,14.936 -49.526,41.503 0,26.1 28.037,39.096 50.46,45.623 -49.526,2.745 -74.283,21.027 -74.283,46.197 0,19.653 13.886,33.672 33.573,46.054 0,0 4.026,2.745 11.63,5.767 H 0 V 0 Z M 2028.269,398.025 h 0.964 c 31.43,0.037 58.513,0.959 66.756,2.336 16.817,6.07 20.551,19.109 20.551,29.36 0,33.088 -20.551,53.59 -55.127,53.59 -41.111,0 -55.128,-26.567 -55.128,-44.258 0,-23.777 11.198,-35.899 21.018,-41.028 z m 222.546,-359.04 -3.786,0.2 0.043,-0.2 -36.901,2.106 -55.32,2.876 -0.183,0.3 -4.676,0.265 0.026,7.1 0.336,0.093 c 11.216,3.07 34.238,8.646 34.855,54.46 l -0.427,249.665 -0.013,0.672 c -0.41,22.133 -0.837,38.752 -1.139,42.728 h 6.579 l 30.868,-28.385 0.367,0.296 c 12.177,9.855 31.885,27.671 79.072,27.671 61.209,0 106.992,-48.003 106.992,-113.727 0,-70.85 -38.32,-114.676 -92.047,-114.676 -28.499,0 -49.046,18.187 -59.337,29.834 l -1.867,-0.466 -0.17,-155.652 z M 586.076,61.118 h -7.834 L 555.575,86.5 554.929,86.152 C 533.579,74.693 506.683,65.55 470.211,65.55 c -99.519,0 -170.067,68.052 -170.067,171.076 0,110.003 71.473,162.205 155.118,162.205 42.515,0 78.954,-14.454 107,-29.834 l 29.712,29.952 6.239,0.021 -0.07,-142.377 H 476.755 v 10.376 l 1.318,0.007 c 43.106,0.42 47.275,21.534 47.275,32.29 v 38.97 l -0.284,0.754 c -9.458,24.787 -28.99,43.051 -59.054,43.051 -49.068,0 -78.967,-64.771 -78.967,-153.807 0,-90.899 29.9,-147.778 86.903,-147.778 45.246,0 75.103,35.356 99.353,106.531 h 12.873 l -0.096,-125.87 z m 141.651,109.307 c -70.557,0 -108.872,52.689 -108.872,112.818 0,64.327 35.519,115.585 112.136,115.585 46.734,0 80.839,-28.433 98.123,-63.854 l -10.605,-6.987 c -16.826,32.618 -35.645,42.878 -64.15,42.878 -45.324,0 -62.612,-40.555 -62.612,-95.55 0,-0.47 -0.472,-5.595 0,-5.595 h 132.228 v -6.522 c 0,-48.477 -24.761,-92.773 -96.248,-92.773 z m 501.605,0 c -70.562,0 -108.876,52.689 -108.876,112.818 0,64.327 35.514,115.585 112.143,115.585 46.717,0 80.827,-28.433 98.115,-63.854 l -10.6,-6.987 c -16.826,32.618 -35.659,42.878 -64.158,42.878 -45.325,0 -62.614,-40.555 -62.614,-95.55 0,-0.213 -0.094,-1.389 -0.154,-2.607 l -0.022,-0.488 c -0.052,-1.295 -0.046,-2.5 0.176,-2.5 h 132.229 v -6.522 c 0,-48.477 -24.77,-92.773 -96.239,-92.773 z m 1400.435,0.004 c -40.178,0 -90.184,20.984 -90.184,49.883 0,15.376 9.358,32.166 33.639,32.166 24.298,0 38.315,-16.33 38.315,-26.58 0,-14.44 -6.993,-27.967 -8.411,-35.429 3.738,-3.716 11.229,-8.85 22.911,-8.85 26.1,0 26.622,29.998 26.632,46.108 v 27.996 c -8.186,6.213 -29.188,13.333 -50.663,20.558 l -4.604,1.55 -1.84,0.62 c -7.047,2.378 -14.011,4.76 -20.456,7.115 -23.373,8.397 -45.787,20.523 -45.787,60.125 0,30.769 24.756,53.128 56.523,53.128 36.448,0 51.41,-14.902 66.828,-31.217 h 1.391 c 7.953,14.653 19.613,26.287 41.308,29.446 3.817,0.553 4.728,0.84 9.2,0.84 43.14,0 51.633,-19.535 52.793,-50.722 0.014,-0.355 0.026,-0.71 0.038,-1.067 l 0.021,-0.711 0.01,-0.356 0.018,-0.707 c 0.107,-4.464 0.075,-8.566 -0.01,-9.446 h -9.733 c -0.092,0.459 -0.179,4.463 -0.404,8.722 l -0.035,0.64 -0.037,0.642 -0.06,0.96 c -0.894,13.788 -3.603,24.086 -13.89,24.086 -11.682,0 -15.216,-13 -15.216,-21.902 0,-11.993 1.712,-44.983 2.465,-79.045 l 0.056,-2.622 0.052,-2.624 c 0.15,-7.874 0.24,-15.75 0.24,-23.384 0,-62 -41.11,-69.923 -91.112,-69.923 z m -804.062,0 c -40.169,0 -90.17,20.984 -90.17,49.883 0,15.376 9.353,32.166 33.651,32.166 24.277,0 38.302,-16.33 38.302,-26.58 0,-14.44 -7.01,-27.967 -8.41,-35.429 3.742,-3.716 11.22,-8.85 22.906,-8.85 25.825,0 26.6,29.39 26.623,45.61 v 28.494 c -7.913,6.009 -27.81,12.864 -48.533,19.844 l -1.414,0.476 -0.708,0.238 -4.604,1.55 -1.84,0.62 c -7.047,2.378 -14.013,4.76 -20.46,7.115 -23.355,8.397 -45.782,20.523 -45.782,60.125 0,30.769 24.76,53.128 56.527,53.128 36.448,0 51.398,-14.902 66.815,-31.217 h 1.404 c 7.944,14.653 19.596,26.287 41.312,29.446 3.817,0.553 4.725,0.84 9.192,0.84 43.148,0 51.629,-19.535 52.789,-50.722 l 0.025,-0.71 c 0.086,-2.61 0.122,-5.25 0.124,-7.364 v -0.563 c 0,-1.831 -0.03,-3.187 -0.07,-3.65 h -9.72 c -0.108,0.459 -0.193,4.463 -0.41,8.722 l -0.033,0.64 -0.036,0.642 -0.038,0.64 -0.02,0.32 c -0.903,13.788 -3.612,24.086 -13.894,24.086 -11.682,0 -15.22,-13 -15.22,-21.902 0,-11.993 1.712,-44.983 2.465,-79.045 l 0.056,-2.622 0.052,-2.624 c 0.15,-7.874 0.24,-15.75 0.24,-23.384 0,-62 -41.115,-69.923 -91.12,-69.923 z M 2975.124,38.985 2877.005,44.68 v 7.17 l 0.147,0.01 c 5.109,0.354 35.577,4.613 35.577,59.963 l 0.06,71.136 -1.609,-0.97 -0.258,-0.114 c -8.54,-3.764 -27.58,-11.076 -52.553,-11.076 -53.727,0 -101.382,45.688 -101.382,110.943 0,71.315 39.236,116.986 92.98,116.986 28.495,0 49.53,-19.105 59.804,-29.834 l 1.867,0.474 v 21.454 l 3.268,3.259 102.332,-6.526 v -9.333 l -0.423,-0.027 c -8.01,-0.541 -21.631,-3.302 -26.68,-6.97 -7.002,-5.111 -11.687,-12.103 -11.687,-22.371 L 2978.396,44.141 Z M 940.32,47.765 c -49.583,0 -84.97,43.713 -84.97,92.03 0,11.15 -1.82,25.878 -1.82,37.204 l -36.893,-0.026 v 20.035 h 36.893 v 160.808 c 0,10.255 -3.739,17.247 -12.145,20.506 -6.081,2.336 -12.15,3.259 -20.097,3.724 v 9.79 h 142.51 v -9.79 c -7.94,-0.465 -22.885,-2.784 -29.904,-5.586 -8.406,-3.263 -12.612,-10.725 -12.612,-20.506 V 197.008 h 52.737 v -20.035 h -54.477 v -76.928 c 0,-9.093 0.85,-24.448 8.89,-32.623 12.437,-12.64 27.313,-5.808 30.93,-0.074 0,0 -14.266,23.377 -11.67,39.563 1.313,8.21 10.417,22.48 30.087,22.48 21.965,0 37.246,-14.523 36.714,-28.502 -1.553,-41.46 -47.157,-53.124 -74.173,-53.124 z m 151.492,-8.78 -97.085,5.547 0.035,7.1 0.336,0.093 c 11.212,3.07 34.238,8.642 34.851,54.46 l -0.816,251.631 v 0.45 c -0.095,10.01 -3.396,16.845 -12.151,20.056 -6.073,2.332 -12.136,3.259 -19.618,3.724 v 9.79 h 129.96 v -9.79 l -0.756,-0.087 c -7.972,-0.957 -13,-2.786 -19.337,-5.5 -8.406,-3.732 -12.145,-10.724 -12.145,-20.979 V 44.14 Z m 452.1,34.485 h -158.86 v 10.72 c 8.41,0.936 21.498,2.802 32.238,7.932 10.749,5.125 13.545,13.505 13.545,23.769 v 237.257 c 0,10.26 -2.796,18.643 -13.545,22.838 -6.081,2.34 -24.299,4.672 -33.643,5.13 v 10.72 h 151.384 c 93.922,0 185.96,-48.469 185.96,-157.08 0,-127.723 -110.26,-161.286 -177.079,-161.286 z m 949.849,-34.485 -97.09,5.547 0.036,7.1 0.336,0.093 c 11.216,3.07 34.242,8.642 34.855,54.46 l -0.82,251.631 v 0.444 c -0.094,10.013 -3.39,16.85 -12.147,20.062 -6.082,2.332 -12.141,3.259 -19.622,3.724 v 9.79 h 129.96 v -9.79 l -0.756,-0.087 c -7.968,-0.957 -12.997,-2.786 -19.338,-5.5 -8.406,-3.732 -12.15,-10.724 -12.15,-20.979 V 44.14 Z m -205.399,158.946 c 35.514,0 44.4,44.753 44.4,90.433 0,59.659 -15.892,98.347 -42.524,98.347 -22.427,0 -31.771,-20.04 -35.98,-34.49 V 216.117 l 0.325,-0.386 c 9.647,-11.418 16.692,-17.8 33.78,-17.8 z M 1537.836,88.389 c 59.808,0 95.785,61.064 95.785,145.906 0,83.911 -24.299,142.63 -87.366,142.63 -23.84,0 -37.386,-9.789 -37.386,-29.825 V 89.324 c 8.411,-0.478 20.56,-0.935 28.967,-0.935 z m 1337.359,96.393 c 22.89,0 32.242,20.054 35.985,34.046 v 134.229 l -0.32,0.408 c -9.668,12.324 -17.174,18.705 -34.74,18.705 -34.572,0 -44.854,-41.947 -44.854,-86.234 0,-61.53 16.82,-101.154 43.929,-101.154 z m -222.063,85.878 -1.872,81.096 c -7.014,10.72 -11.682,17.712 -27.565,17.712 -13.088,0 -23.361,-9.324 -23.361,-36.817 0,-39.158 20.56,-49.417 52.798,-61.991 z m -804.053,0 -1.867,81.096 c -7.015,10.72 -11.692,17.712 -27.566,17.712 -13.096,0 -23.365,-9.324 -23.365,-36.817 0,-39.158 20.56,-49.417 52.798,-61.991 z m 200.656,-90.305 c 23.351,0 30.824,28.437 30.824,59.672 0,29.373 -7.94,59.66 -30.366,59.66 -19.143,0 -28.962,-28.434 -28.962,-61.065 0,-31.235 5.605,-58.267 28.504,-58.267 z m -823.683,2.2 c 26.636,0 27.103,36.817 27.103,73.168 l -59.813,0.94 c 1.4,-47.076 11.212,-74.108 32.71,-74.108 z m -501.596,0 c 26.632,0 27.103,36.817 27.103,73.168 l -59.812,0.94 c 1.4,-47.076 11.215,-74.108 32.709,-74.108 z"
     fill="#265a91"
     fill-rule="evenodd"
     id="path1" />
</svg>
