<?xml version="1.0" encoding="UTF-8"?>
<svg width="32px" height="32px" viewBox="0 0 32 32" version="1.1" xmlns="http://www.w3.org/2000/svg" xmlns:xlink="http://www.w3.org/1999/xlink">
    <title>Exporteras/Favicon/LJU/favicon</title>
    <g id="Exporteras" stroke="none" stroke-width="1" fill="none" fill-rule="evenodd">
        <g id="Logo/App/AT">
            <g id="Färger/LJU/Primär-#006A91" fill="#006A91">
                <rect id="Rectangle" x="0" y="0" width="32" height="32"/>
            </g>
            <g id="Logga/Orginal-utan-marginaler/LJU-förenklad" transform="translate(6.750000, 6.750000)" fill="#FFFFFF">
                <path d="M9.82808233,14.8605001 L11.1750389,12.1878354 L11.6649712,11.182369 C11.7632433,10.8389204 11.7632433,10.4954719 11.493852,10.1766166 C11.0773381,9.66187272 10.2200281,10.4219779 10.7588108,11.0837098 C10.8813652,11.2801703 10.7588108,11.6236189 10.5874059,11.9421882 C10.5382698,12.0165401 10.5139875,12.1137695 10.4648514,12.1878354 C10.3422969,12.3834381 10.1954601,12.5550194 9.92606878,12.5550194 C9.63210943,12.5550194 6.4234103,12.4818114 5.93347805,12.4331967 C5.73721948,12.4331967 5.54124658,12.4080314 5.46754249,12.1878354 C5.46754249,12.1878354 5.46754249,12.1629561 5.44326013,12.1629561 L5.44326013,1.07966206 C5.66380106,0.589225509 6.03117883,0.663005468 6.66823359,0.564346221 C7.03561135,0.51544555 6.9376249,0.000987618869 6.66823359,0.000987618869 C4.92904552,0.123096311 3.38583036,0.0987889599 1.72006072,0.000987618869 C1.40181902,0.000987618869 1.35268295,0.466830849 1.67121033,0.564346221 C2.11200652,0.687312819 2.65107483,0.589225509 2.79762599,1.03076139 L2.79762599,12.1878354 C2.60193877,12.7760733 2.18542494,12.7028653 1.81804717,12.8012386 C1.30354689,12.9722479 1.27926454,13.5859371 2.03830243,13.5859371 L9.26473166,13.5859371 C9.87721839,13.5859371 9.36271811,14.394085 9.26473166,14.7864342 C9.19131324,15.0812681 9.63210943,15.1547621 9.82808233,14.8605001 Z M11.7389609,0.000987618869 C11.3221614,0.000987618869 11.3712975,0.491138199 11.6895392,0.564346221 C12.3020259,0.71162017 12.7185397,0.638412149 12.8902303,1.0058821 L12.8902303,15.8899879 C12.8902303,16.0864485 12.8165262,16.3807105 12.6694037,16.6260717 C12.4737165,16.9689484 12.1063387,17.2634962 11.5669847,17.5085715 C10.7345284,17.8022615 9.70552785,17.9501074 8.99534034,17.312111 C8.6276769,16.8954544 9.31329637,16.6992797 9.36271811,16.3075024 C9.4364222,15.8662525 9.19131324,15.5465394 8.8236498,15.5465394 C8.33371755,15.5465394 8.04004388,16.0864485 8.11317662,16.7238731 C8.16231268,17.3856049 8.60310887,17.7788121 9.14217718,18.0968094 C10.391433,18.7345199 11.9592162,18.6361467 13.183904,18.0236014 C14.8008232,17.1656949 15.5601468,15.5465394 15.5355788,14.0506364 L15.5355788,1.03076139 C15.780402,0.589225509 16.3194704,0.73621349 16.8339706,0.564346221 C17.2501988,0.417930178 17.0296579,-0.0236057008 16.8094026,0.000987618869 C15.0699289,0.123096311 13.4778633,0.14768963 11.7389609,0.000987618869 Z" id="Ljusnan"/>
            </g>
        </g>
    </g>
</svg>