<?xml version="1.0" encoding="UTF-8"?>
<svg width="32px" height="32px" viewBox="0 0 32 32" version="1.1" xmlns="http://www.w3.org/2000/svg" xmlns:xlink="http://www.w3.org/1999/xlink">
    <title>Exporteras/Favicon/SDT/favicon</title>
    <g id="Exporteras" stroke="none" stroke-width="1" fill="none" fill-rule="evenodd">
        <g id="Logo/App/AT">
            <g id="Färger/Vit" fill="#000000">
                <rect id="Rectangle" x="0" y="0" width="32" height="32"/>
            </g>
            <g id="Logga/Orginal-utan-marginaler/SDT" transform="translate(3.187500, 3.187500)" fill="#FFFFFF">
                <path d="M25.3111067,10.0067819 C26.860897,16.9094988 22.5210912,23.7616978 15.6186025,25.3111956 C8.71583307,26.8606935 1.86358201,22.5212014 0.313791701,15.6184845 C-1.23571795,8.71548687 3.10408783,1.86356856 10.0071379,0.313790035 C16.9099073,-1.23570784 23.7618777,3.10406495 25.3111067,10.0067819 Z M10.1508345,0.955087378 C6.98389609,1.66626789 4.28284902,3.5677075 2.54642153,6.31083233 C0.809432716,9.05311519 0.245030632,12.3073133 0.955374578,15.4747889 C1.66599918,18.6414226 3.56801456,21.3427298 6.31059893,23.0797054 C8.27997209,24.3266569 10.5134439,24.9693575 12.789295,24.9693575 C13.6823469,24.9693575 14.5821346,24.8708475 15.4751865,24.6701789 C18.6418443,23.9589984 21.343172,22.0575588 23.0801608,19.315276 C24.816027,16.5729931 25.3818324,13.3182337 24.6706464,10.1510387 C23.2028081,3.61345431 16.6909945,-0.508529973 10.1508345,0.955087378 Z M12.8139928,1.14845887 C18.1492905,1.14845887 22.9771595,4.83991794 24.1926868,10.2579684 C24.874965,13.2977458 24.3332962,16.4214392 22.6659104,19.0534246 C20.9996473,21.6851293 18.4074953,23.5096693 15.3671334,24.192223 C12.3281748,24.8742153 9.20473831,24.3339539 6.57245231,22.6654582 C3.94044696,20.9992077 2.11505106,18.4070754 1.43361483,15.3667367 C0.751055971,12.3278011 1.29300546,9.20438839 2.95954926,6.57268372 C4.62693503,3.94069838 7.2185257,2.11559701 10.257765,1.433324 C11.1148928,1.24051381 11.9706172,1.14845887 12.8139928,1.14845887 Z M7.701269,7.79254782 C7.59465405,7.16001055 6.68784776,7.29206519 6.68784776,7.29206519 L6.68784776,7.29206519 L4.37276805,7.82654345 C3.39214771,8.0529375 3.5671211,8.9018222 3.5671211,8.9018222 L3.5671211,8.9018222 L4.76216852,14.0781412 C4.76216852,14.0781412 4.93477783,15.3993485 6.54643723,15.0272677 C6.74946329,14.9803954 7.4481854,14.71688 7.61795165,15.2119596 L7.61795165,15.2119596 L8.42535609,18.7337495 C8.42535609,18.7337495 8.47742145,18.9388218 8.4765039,18.9808545 C8.47127407,19.4397418 7.69650612,19.8819884 7.20098219,19.2170646 C7.18438854,19.1952861 7.15754846,19.108678 7.1412513,19.0830719 L7.1412513,19.0830719 L6.82191935,17.6589981 L5.22960976,18.0167439 L5.39524007,18.2301351 C5.39524007,18.2301351 5.80345237,20.0248787 5.81313949,20.0607039 C6.1351326,21.3081868 7.19295432,21.052222 7.19295432,21.052222 L7.19295432,21.052222 L9.37536272,20.5401501 C9.37536272,20.5401501 10.4698211,20.2874745 10.2118543,19.1506725 L10.2118543,19.1506725 L8.93435965,13.6172352 C8.67607227,12.7356614 7.8518503,12.944274 7.8518503,12.944274 L7.8518503,12.944274 L6.4353738,13.2712934 C6.01936838,13.3750891 5.94528754,12.8405326 5.94528754,12.8405326 L5.94528754,12.8405326 L5.23879545,9.78037919 C5.23879545,9.78037919 5.10454005,9.25713072 5.77815631,9.10161415 C6.45244484,8.94594238 6.55141811,9.43598542 6.55141811,9.43598542 L6.55141811,9.43598542 L6.80643297,10.5405761 L8.25831579,10.2053826 Z M10.2654627,6.54411065 L8.31116878,6.99529494 L8.62746548,8.36532646 C9.1223533,8.2780917 9.15455909,8.73350517 9.15455909,8.73350517 L11.3239878,18.1303332 C11.3239878,18.1303332 11.4730796,18.5808466 11.0241435,18.7556811 L11.3080856,20.0387329 L13.2773879,19.5901923 C14.4023226,19.3304807 15.9885388,19.1334368 16.1209431,18.1447485 C16.1250868,18.1177125 16.116324,17.8824375 16.0620414,17.6708286 L13.546277,6.88529469 C13.521018,6.80349035 13.4107783,6.58976349 13.3997604,6.57680057 C12.8077361,5.86296618 12.0783554,6.12557138 10.2654627,6.54411065 Z M19.6502229,4.38851061 L14.2561387,5.63383306 L14.812759,8.88623767 L15.6735786,8.68585716 C15.2203424,6.72267554 16.0373252,6.54649344 16.3036977,6.53936577 L16.3530879,6.53990703 C16.3725112,6.54091145 16.3834717,6.54252337 16.3834717,6.54252337 L16.3834717,6.54252337 L18.4577333,15.5271375 C18.4577333,15.5271375 18.779609,16.6585829 18.1600056,16.9816002 L18.1600056,16.9816002 L18.4786712,18.3618925 L21.1339204,17.7488799 L20.8152548,16.3685877 C20.228403,16.3652185 19.9960203,15.2001898 19.9960203,15.2001898 L19.9960203,15.2001898 L17.9094508,6.16226446 C17.9094508,6.16226446 18.9818303,5.49906206 19.5163212,7.81419674 L19.5163212,7.81419674 L20.3889299,7.61273915 L19.6502229,4.38851061 Z M12.3557883,8.26580881 C12.517696,8.96710791 14.4909582,17.209577 14.4932887,17.52434 C14.4970285,18.1059142 13.5784347,18.218605 13.235352,18.2978119 L12.9875609,18.3348134 L10.5927283,7.96165385 L10.8018048,7.91338473 C11.1554197,7.83174629 12.1674626,7.45008017 12.3557883,8.26580881 Z" id="Combined-Shape"/>
            </g>
        </g>
    </g>
</svg>