<svg aria-labelledby="logo-title" xmlns="http://www.w3.org/2000/svg" preserveAspectRatio="xMinYMid meet" width="480" height="96" viewBox="0 0 480 96">
<title id="logo-title">Ljusnan</title>
<path d="M29.8 69.4c-.3 1 1.4 1.4 2.1.2l5.2-10 1.8-3.9c.4-1.3.4-2.6-.6-3.8-1.6-2-4.9 1-2.8 3.4.4.8 0 2-.7 3.3l-.5 1c-.4.6-1 1.3-2 1.3a477 477 0 0 1-15.2-.5c-.8 0-1.5 0-1.8-.9V17.3c.8-1.9 2.2-1.6 4.6-2 1.4-.1 1-2 0-2-6.6.4-12.5.3-18.9 0-1.2 0-1.4 1.7-.1 2 1.6.5 3.7.1 4.2 1.8v42.3c-.7 2.2-2.3 2-3.7 2.3-2 .7-2 3 .8 3h27.6c2.3 0 .3 3 0 4.6m81-56c-3.2.2-7.1.2-11 0-1.2-.2-1.4 1.8 0 2 2.1.5 3.3 0 4.3 1.6v30.2c0 4.8-2.2 9.2-6 11.7l-1 .6c-3.5 1.7-8 1.6-11.3 0l-1-.6c-3.9-2.3-7-6.2-6.7-10.6V17.4c.6-1.7 2.5-1.5 4.3-2 1.1-.2.7-2.2-.4-2-5.7.4-11.8.3-18.6 0-1.4-.2-1.3 1.8-.3 2 2.1.7 3.5.2 4.2 1.8v29l.5 4c.5 3.4 2.4 6.7 4.9 9.3 1 1 2.1 2 3.3 2.8 5.2 3.5 13.4 4 19.2 1.5 2.5-.9 4.8-2.3 6.9-4.3a16 16 0 0 0 5-11.8V17c.6-1.3 2-1 3.8-1.6 1.5-.4 1-2.2-.1-2m-52.3 0c-6.6.4-12.7.5-19.3 0-1.6 0-1.4 1.8-.2 2 2.3.6 4 .3 4.6 1.7v56.4a6 6 0 0 1-.9 2.8 8.8 8.8 0 0 1-4.2 3.4c-3.1 1-7 1.7-9.8-.8-1.4-1.5 1.3-2.3 1.4-3.8.3-1.6-.6-2.9-2-2.9-1.9 0-3 2-2.7 4.5.2 2.5 1.9 4 4 5.2 4.7 2.4 10.6 2 15.3-.3 6.2-3.2 9-9.4 9-15V17.2c.9-1.7 3-1.1 5-1.8 1.5-.5.7-2.2-.2-2m81.2 17.4c-5.5-1.4-11.5-3.3-12.9-6.9-.8-2.1-.5-4.4 1.1-5.6 4.5-3.3 11.9-1.8 17.7 1.9 3.4 2.2 4.4 4 7 7.8 1 1.7 2.5.3 1.7-1.2l-6-13.1c-.2-.6-1-1.6-1.8-1.1-1.7.9-.2 3.4.2 5-.4.5-1-.4-1.5-.7-6.2-4-15.2-6-22.1-.8-3.8 2.8-5.2 6.6-5.2 11.1.4 6.7 6.3 10.2 13 12.4 4.8 1.6 9 2.2 13.2 4.8 4 2.5 5.5 6 5.4 9.9 0 1.9-1.1 3.7-2.7 5.2a9.7 9.7 0 0 1-4.1 2.5c-5.5 1.5-11.2.3-16.2-2.5-2.5-1.5-5-3.3-6.9-5.6-2-2.3-3.2-5.6-5-8.3-1.1-2-2.8-.2-2 2a302.8 302.8 0 0 0 6.8 16c.7 1.7 2.5 1.6 2.5.6 0-1.2-.8-3-1-4.7V59l.6-.1.7.7c5 4.8 11.6 6.8 19.2 6a17.8 17.8 0 0 0 11.6-6c3.4-3.9 5-9.1 3.5-14.7-2.3-8.4-9.2-12-16.8-14m176-17.3c-2.8.3-7.1.3-11.5 0-.9-.1-1 1.9-.1 2.1 1.5.5 3 .3 3.6 1.7v29l-21.6-28.2c-1-1.4.2-2 2-2.5 1.3-.3 1.2-2.2 0-2.1-6.8.4-14.1.5-21.1 0-1.3-.1-1.8 1.8 0 2.1a6 6 0 0 1 4.8 4v39.6c0 2.3-1.5 2.7-3 3a5 5 0 0 1-5-2.4l-20.5-42.4c-.3-.8 1.4-1 2.4-1.2 1.1-.3 1.1-2.8-.5-2.7-5.1.3-12 .4-19 0-1.4-.1-2 2.2 0 2.8 2.9.7 5.5 1.4 5 3l-18 40.8c-.6 1.3-1.6 2-3.4 2.3-1.7.4-3.7-.4-3.7-2V18.8c.9-2.6 2.3-2.4 4-3.2 1-.4 1.2-2.3-.2-2.1-3.8.4-7 .4-11.4 0-1-.1-1 1.9-.1 2.1 2 .6 3.5.4 4.2 3.3V48l-22.8-29.5c-1.6-2.2 0-2.4 1.8-3 .8-.2 1.2-2.1-.3-2.1-7 .4-14.3.4-20.8 0-1.5-.1-1.3 1.8-.4 2.1 2.6 1 5 .9 5.7 3.7V61c-.7 1.9-3 1.6-4 1.9-1.6.5-1.8 2-.2 2h11.6c1.8 0 1.7-1.8.2-2-1.9-.3-3.7 0-4.5-2v-38L199.5 62a8.1 8.1 0 0 0 5.5 3h15.3c1.9 0 1.9-1.6 1-2-1.2-.4-2.1.1-3.2-.7-.8-.5-1-1.4-.8-2.2l4.8-11h24l5.4 11c1.2 2.3-2.5 2-4 2.5-1.2.3-1.8 2.4.8 2.4h29.3c2.3 0 2.1-2 .8-2.5-2-.7-3.1.4-3.4-3.3V23.5l31.3 40.2c2.2 2.2 5.3 2.1 5.3-1.8V17.3c.5-1.3 2.6-1.2 4.5-1.7.8-.2.8-2.3-.4-2.1m-91.8 31.4 9.6-21.5L243.9 45h-20" fill="#006A91" fill-rule="evenodd"></path>
</svg>
