<svg aria-labelledby="logo-title" width="480" height="96" viewBox="0 0 480 96" fill="none" xmlns="http://www.w3.org/2000/svg">
<title id="logo-title">Södra Dalarnes Tidning</title>
<path fill="#000" fill-rule="evenodd" d="M208.565 41.377v3.703c-1.319.239-1.229 1.662-1.229 1.662v27.362s.344.065.846.066h.102c1.357-.022 3.688-.532 3.688-3.79v-.626h2.992v7.652h-12.57v-3.302l.147.003.133-.013c.758-.122.811-1.005.815-1.18v-26.18s.092-1.415-1.108-1.654v-3.703h6.184Zm98.571-.197.033.004c.295.032 2.429.32 2.33 1.93v6.691h-4.028v-3.083c-.004-.166-.095-1.33-1.832-1.33s-1.828 1.258-1.832 1.438v8.507s-.131 1.452 1.027 1.432h3.954c.246.003 2.281.102 2.416 2.43v15.344c-.013 2.914-2.609 3.132-2.998 3.148l-.027.001h-.022l-6.058.023h-.018l-.023-.001-.03-.001c-.451-.023-2.878-.291-2.957-3.448l-.001-.073v-.762l.001-.386.007-3.241.001-.284.001-.113v-.214l-.303-.662 4.408.025-.024 3.944c.028.077.048.322.076.389.897 2.052 3.207 1.358 3.502.153.029-.11.013-.681.013-.681l.016-9.763c-.14-1.357-2.006-1.155-2.64-1.139l-.065.001c-4.471 0-4.125-3.583-4.125-3.583V43.522s.054-2.341 2.778-2.341h6.42Zm-219.824.322.19.003c.896.019 1.908.148 2.918.148l.209-.002c2.22-.04 4.218-.663 4.968 1.243.322.82.443 4.63.474 8.797l.005.718.004 1.082v1.44a563.16 563.16 0 0 1-.095 9.093v.444c.017 5.2.333 9.944-.478 11.851-.604 1.425-2.245 1.654-3.975 1.672l-.217.001h-.217c-.507-.003-1.014-.017-1.5-.017l-.224.002c-.444.003-.865.017-1.262.022l-.196.001h-.192c-1.392-.013-2.435-.227-2.999-1.563-.735-1.743-.78-6.136-.783-11.15v-9.068c.097-6.361-.015-11.527.773-13.429.44-1.06 1.404-1.29 2.597-1.288Zm-9.953-.322.033.004c.295.032 2.428.32 2.331 1.93v6.691h-4.027v-3.083c-.004-.166-.096-1.33-1.832-1.33-1.735 0-1.829 1.258-1.833 1.438v8.507l-.004.067v.109c.008.386.126 1.272 1.032 1.256h3.953c.246.003 2.282.102 2.417 2.43v15.344c-.01 2.914-2.609 3.132-2.998 3.148l-.027.001h-.022l-6.058.023h-.018l-.023-.001-.03-.001c-.451-.023-2.878-.291-2.959-3.448v-.835l.012-4.024v-.214L67 68.53l4.41.025-.025 3.944c.027.077.045.322.076.389.9 2.052 3.21 1.358 3.502.153.013-.049.017-.189.018-.33v-.2l-.002-.151.014-9.763c-.14-1.357-2.005-1.155-2.643-1.139l-.066.001c-3.768 0-4.111-2.547-4.126-3.346v-.1c0-.073.004-.12.005-.133V43.522s.056-2.341 2.775-2.341h6.42Zm12.737 4.868-.2.006c-1.925.112-1.884 1.854-1.884 1.854v24.15s-.116 1.934 1.936 1.934l.223-.005c2.295-.104 2.104-1.82 2.104-1.82l-.043-24.325v-.022c-.002-.202-.08-1.772-2.136-1.772ZM133.6 73.552l.001.264v.38l-.001.317c-.001.28-.003.598-.008.922l-.006.388c-.013.708-.038 1.376-.084 1.658-.019.12-.566.21-1.415.225l-.174.002h-.182a17.354 17.354 0 0 1-.586-.015c-3.616-.151-2.954-2.806-2.954-8.756l.044-4.804c0-2.18-1.157-3.264-2.908-3.264h-.093c-.278.003-1.077.012-1.253.024v11.624l-.018 1.681v3.403l-5.574-.005v-3.82c1.797-.112 1.745-1.718 1.745-1.718v-.128l.001-.79v-.95l.001-.224v-.736l.001-.265v-.85l.001-.3v-.945l.001-1.008v-.348l.001-.713v-.363l.001-1.117v-.38l.001-1.156v-.39l.001-1.18v-.395l.001-1.581v-.394l.001-3.076v-2.147l-.001-1.93v-.296l-.001-.833v-.26l-.001-.489a240.04 240.04 0 0 0-.008-2.145c-.02-.962-1.002-1.226-1.198-1.27l-.034-.006v-4.038h7.629c2.51 0 4.107.748 4.954 2.031.848 1.284.659 3.71.659 7.514 0 4.62-.258 7.721-2.62 8.393-.118.035-.289.078-.512.132 2.019.407 3.096 1.21 3.201 2.978l.029 10.248c.095.79.715.911 1.083.912h.066c.084-.004.149-.012.183-.018l.026-.004v.012Zm-7.626-27.993h-.11l-.097.001c-.475.003-1.589.012-1.807.025v11.724h2.145c2.484 0 2.547-4.175 2.547-6.263v-.33l.001-.168v-.339c-.006-2.217-.175-4.65-2.679-4.65Zm126.46 28.162v.628c-.001.317-.003.698-.008 1.086l-.006.388c-.013.708-.038 1.376-.083 1.658-.018.12-.565.21-1.416.225l-.174.002h-.182a17.41 17.41 0 0 1-.587-.015c-3.61-.151-2.948-2.806-2.948-8.756l.019-2.388.024-2.416c0-2.18-1.158-3.264-2.908-3.264h-.094a42.96 42.96 0 0 0-1.251.024v11.624l-.019 1.681v3.403l-5.575-.005v-3.82c1.606-.1 1.735-1.391 1.744-1.667l.001-.334v-.1l.001-.88v-.19l.001-.64v-.235l.001-1.04v-.283l.001-.592v-.308l.001-.968v-.336l.001-1.044V64.8l.001-.731v-.373l.001-1.138v-1.556l.001-.393v-1.58l.001-.396V55.9l.001-.381v-3.238l-.001-.333V50.11l-.001-.807-.001-.25v-.468a193.385 193.385 0 0 0-.008-1.916c-.017-.962-1.001-1.226-1.197-1.27l-.034-.006v-4.038h7.63c2.508 0 4.102.748 4.951 2.031.848 1.284.66 3.71.66 7.514 0 4.62-.26 7.721-2.623 8.393-.121.035-.287.078-.509.132 2.019.407 3.094 1.21 3.2 2.978l.029 10.248c.094.79.713.911 1.081.912h.066c.125-.005.208-.022.208-.022l.001.18Zm-7.622-28.162h-.111l-.097.001c-.475.003-1.588.012-1.803.025v11.724h2.14c2.484 0 2.547-4.175 2.547-6.263v-.33l.001-.507-.002-.342c-.027-2.118-.299-4.308-2.675-4.308Zm175.282.09h-1.085l.02 27.467s0 .907 1.008.907l.023 3.327h-3.717l-8.046-22.217v17.655s-.149 1.347 1.135 1.458v3.104h-6.858v-2.953c1.229-.283 1.196-1.549 1.191-1.654V46.631s-.015-.912-1.225-.981v-4.194h5.469l7.228 19.747V46.449s.098-.839-.954-.987l.014-4.006h5.797v4.194Zm-32.789 0h-1.079l.019 27.467s0 .907 1.008.907l.024 3.327h-3.718l-8.045-22.217v17.655s-.154 1.347 1.13 1.458v3.104h-6.854v-2.953c1.069-.246 1.184-1.235 1.193-1.558v-.076l-.001-.02V46.631s-.02-.912-1.226-.981v-4.194h5.469l7.229 19.747V46.449s.097-.839-.955-.987l.014-4.006h5.792v4.194Zm-112.621 0h-1.085l.02 27.467s0 .907 1.008.907l.024 3.327h-3.718l-8.044-22.217v17.655s-.155 1.347 1.128 1.458v3.104h-6.853v-2.953c1.229-.283 1.197-1.549 1.192-1.654V46.631s-.02-.912-1.226-.981v-4.194h5.468l7.23 19.747V46.449s.096-.839-.955-.987l.015-4.006h5.796v4.194Zm14.039 17.174-.897-.006c0-2.085-1.095-2.423-1.79-2.428h-.072c-.285.008-.486.067-.486.067v13.11l.014.004c.062.013.319.062.674.062h.083c1.167-.026 3.245-.606 3.245-4.42h2.793v8.138h-12.524l-.009-3.488c1.181-.173 1.055-1.126 1.055-1.126V46.48s.169-1.154-1.046-1.245v-3.778h12.639v8.155h-3.11c0-3.718-2.452-4.135-3.452-4.151h-.129a2.919 2.919 0 0 0-.271.016l-.012.002.05 12.9s2.469.656 2.469-2.421l.776-.028v6.894Zm49.036-21.408-.015 8.938h-2.42c0-6.42-3.227-5.326-3.227-5.326V70.09l-.001.038v.109c.003.633.104 3.108 1.448 3.427v3.827h-7.364v-3.827c1.495-.388 1.66-2.584 1.671-3.37v-.15a4.007 4.007 0 0 0-.003-.12V45.1s-.231-.09-.568-.095h-.061c-.925.014-2.543.698-2.543 5.307l-2.389.004.512-8.901h14.96Zm10.552-.036v3.611c-1.488.063-1.6 2.072-1.603 2.606v.096l.001.025v24.118c.004.324.104 1.848 1.602 2.01v3.502h-7.38v-3.502c1.447-.168 1.517-1.81 1.52-2.043V47.725s.183-2.589-1.52-2.735v-3.61h7.38Zm50.294 0v3.611c-1.488.063-1.603 2.072-1.607 2.606v.096l.001.025v24.118c.004.324.103 1.848 1.606 2.01v3.502h-7.379v-3.502c1.447-.168 1.513-1.81 1.515-2.043V47.725s.188-2.589-1.515-2.735v-3.61h7.379ZM438 67.215c-.805 0-.921.412-.921.412v.109l-.001.214c-.004.83-.013 3.13-.016 5.368l-.001.478v.237l-.001.928c0 2.4-3.283 2.62-4.535 2.63h-.1c-.126 0-.225-.002-.29-.003h-.086l-4.62.003c-2.425-.34-2.879-1.358-3.264-2.394-.282-.76-.381-6.597-.386-12.961v-1.37l.003-1.377.003-.916c.027-6.551.134-12.745.225-13.698.487-4.983 13.127-4.263 13.127.115v6.858h-4.379l-.029-4.56c0-.824-1.094-1.244-2.158-1.246l-.167.004c-.947.038-1.823.412-1.823 1.133v1.254l-.001 2.01v.268l-.001 1.766v.318l-.001 1.672v.35l-.001 1.805v2.258l-.001.382-.001 2.302v2.645l-.001 2.511v.342l-.001 4.602c0 1.337 1.029 1.987 2.079 1.97l.131-.005c1.049-.073 2.076-.813 2.071-2.203v-3.799s.016-.412-1.002-.412v-3.548H438v3.547ZM87.85 36.049l.149.003c1.376.069 1.443.86 1.439 1.92-.004 1.434-.645 1.92-1.44 1.92-.796 0-1.481-.588-1.44-1.92.037-1.237.267-1.976 1.44-1.92l-.147-.003ZM92.21 36l.148.003c1.378.066 1.443.86 1.44 1.919-.004 1.435-.645 1.92-1.44 1.92-.796 0-1.483-.588-1.44-1.92.038-1.237.267-1.976 1.44-1.919L92.211 36Zm82.294 5.378c3.143.008 4.654.208 5.554 1.999.021.04.182.67.198.901l.068 29.925c.014.59-.105 1.215-.133 1.284-.669 1.777-2.999 2.08-5.409 2.105l-.233.002h-.234l-.233-.001-.465-.006c-.618-.009-1.224-.023-1.792-.023l-5.457-.016.032-3.551c1.288-.188 1.169-1.464 1.169-1.464V46.475s.193-1.219-1.164-1.29v-3.8h5.42c.894 0 1.695-.007 2.414-.007h.265Zm-.941 3.914h-.138c-.41 0-.775.025-1.02.025h-.58v28.765l.675.053c.952 0 3.439.262 3.783-1.271.058-.261.08-2.707.082-5.997v-1.085c-.004-7.159-.082-17.325-.082-18.593 0-1.633-1.511-1.884-2.72-1.897Zm186.343-3.914c3.142.008 4.655.208 5.553 1.999.02.04.179.67.197.901l.069 29.925c.015.59-.107 1.215-.135 1.284-.67 1.777-2.998 2.08-5.407 2.105l-.233.002h-.233c-.856-.003-1.71-.03-2.49-.03l-5.459-.016.029-3.551c1.288-.188 1.172-1.464 1.172-1.464V46.475s.193-1.219-1.167-1.29v-3.8h5.425c.894 0 1.694-.007 2.413-.007h.266Zm-.943 3.914h-.138c-.41 0-.774.025-1.019.025h-.579v28.765l.676.053c.949 0 3.433.262 3.781-1.271.059-.261.081-2.707.083-5.997v-1.458a1590.51 1590.51 0 0 0-.014-5.17l-.003-.818c-.024-5.73-.066-11.314-.066-12.232 0-1.633-1.512-1.884-2.721-1.897Zm-250.046-3.914c3.143.008 4.655.208 5.554 1.999.021.04.182.67.199.901l.067 29.925c.013.59-.107 1.215-.133 1.284-.67 1.777-2.999 2.08-5.409 2.105l-.233.002h-.234c-.856-.003-1.709-.03-2.489-.03l-5.458-.016.032-3.551c1.286-.188 1.17-1.464 1.17-1.464V46.475s.19-1.219-1.166-1.29v-3.8h5.422c.893 0 1.694-.007 2.412-.007h.266Zm-.941 3.914h-.138c-.409 0-.774.025-1.019.025h-.58v28.765l.674.053c.952 0 3.438.262 3.782-1.271.056-.252.078-2.535.082-5.648V65.41c-.002-1.627-.007-3.395-.014-5.17l-.003-.818c-.022-5.32-.06-10.515-.065-11.965v-.267c0-1.633-1.511-1.884-2.719-1.897Zm85.391-3.91 5.009 31.477s.184 1.608 1.137 1.824l.036 2.803-6.268-.034-.005-2.697c.093-.007 1.502-.142.871-2.186l-.72-3.557-4.415-.04-.807 3.882c-.207 1.539 1.027 1.829 1.027 1.829l-.025 2.745-6.476-.01v-2.875c1.057-.278 1.406-1.663 1.406-1.663l5.245-31.447 3.985-.051Zm-1.964 6.6-2.305 17.528h4.398l-2.093-17.528Zm36.499-6.6 5.011 31.477s.183 1.608 1.138 1.824l.034 2.803-6.268-.034-.004-2.697c.093-.007 1.501-.142.871-2.186l-.719-3.557-4.417-.04-.806 3.882c-.207 1.539 1.027 1.829 1.027 1.829l-.024 2.745-6.477-.01v-2.875c1.057-.278 1.406-1.663 1.406-1.663l5.245-31.447 3.983-.051Zm-1.963 6.6-2.305 17.528h4.398l-2.093-17.528Zm-79.267-6.6 5.008 31.477s.184 1.608 1.136 1.824l.038 2.803-6.269-.034-.005-2.697c.093-.007 1.502-.142.872-2.186l-.721-3.557-4.415-.04-.806 3.882c-.207 1.539 1.027 1.829 1.027 1.829l-.026 2.745-6.475-.01v-2.875c1.057-.278 1.406-1.663 1.406-1.663l5.245-31.447 3.985-.051Zm-1.965 5.937-2.305 18.191h4.398l-2.093-18.192Z" clip-rule="evenodd"></path>
<path fill="#fff" d="M30.22 75.08c14.834 0 26.859-12.025 26.859-26.858S45.054 21.365 30.22 21.365 3.363 33.389 3.363 48.222 15.388 75.08 30.221 75.08Z"></path>
<path fill="#000" fill-rule="evenodd" d="M59.704 41.604c3.656 16.282-6.581 32.445-22.863 36.1C20.56 81.36 4.396 71.124.741 54.841c-3.656-16.283 6.581-32.445 22.864-36.1 16.282-3.656 32.445 6.58 36.099 22.863Zm-35.76-21.351c-7.47 1.677-13.842 6.163-17.937 12.633C1.909 39.355.578 47.031 2.254 54.502c1.676 7.47 6.162 13.841 12.631 17.939 4.646 2.94 9.914 4.457 15.283 4.457 2.106 0 4.228-.233 6.335-.706 7.47-1.677 13.841-6.162 17.939-12.631 4.094-6.468 5.429-14.146 3.751-21.617-3.462-15.42-18.822-25.144-34.25-21.691Zm6.282.456c12.585 0 23.973 8.707 26.84 21.488 1.61 7.17.332 14.538-3.602 20.746-3.93 6.208-10.044 10.512-17.216 12.122-7.168 1.609-14.536.334-20.745-3.602C9.295 67.533 4.99 61.42 3.382 54.247 1.772 47.08 3.05 39.711 6.98 33.504c3.933-6.209 10.046-10.514 17.215-12.123a27.443 27.443 0 0 1 6.03-.672Zm-12.06 15.672c-.252-1.492-2.39-1.18-2.39-1.18l-5.461 1.26c-2.314.534-1.9 2.537-1.9 2.537l2.818 12.21s.407 3.116 4.209 2.238c.479-.11 2.127-.732 2.527.436l1.905 8.307s.123.484.12.583c-.012 1.083-1.84 2.126-3.008.557-.04-.051-.103-.255-.141-.316l-.753-3.359-3.756.844.39.503s.963 4.234.986 4.318c.76 2.943 3.255 2.34 3.255 2.34l5.148-1.209s2.581-.596 1.973-3.277L21.074 50.12c-.609-2.079-2.553-1.587-2.553-1.587l-3.341.771c-.982.245-1.156-1.016-1.156-1.016l-1.667-7.218-.004-.02c-.032-.158-.195-1.241 1.277-1.581 1.59-.367 1.823.789 1.823.789l.602 2.605 3.425-.79-1.314-5.692Zm6.048-2.945-4.61 1.065.747 3.231c1.167-.206 1.243.869 1.243.869l5.117 22.165s.352 1.063-.707 1.475l.67 3.026 4.645-1.057c2.653-.613 6.395-1.078 6.707-3.41.01-.064-.01-.619-.139-1.118l-5.934-25.44a5.398 5.398 0 0 0-.345-.729c-1.397-1.683-3.117-1.064-7.394-.077Zm22.137-5.084-12.724 2.937 1.313 7.672 2.031-.473c-1.267-5.488 1.675-5.055 1.675-5.055l4.892 21.193.009.032c.08.304.656 2.685-.711 3.398l.752 3.256 6.263-1.446-.752-3.256c-1.384-.008-1.932-2.756-1.932-2.756l-4.922-21.318s2.53-1.565 3.79 3.896l2.059-.475-1.743-7.605Zm-17.206 9.146c.178.771 1.287 5.417 2.42 10.229l.29 1.238c.84 3.575 1.65 7.066 2.058 8.953l.087.407c.119.564.186.922.187 1.011.009 1.372-2.158 1.638-2.967 1.825l-.585.087-5.649-24.468.493-.114c.835-.192 3.222-1.093 3.666.832Z" clip-rule="evenodd"></path>
<path fill="#000" d="M469.887 66.395c1.97.687 3.922 1.427 5.887 2.13.359.13.51.356.462.705-.089.628.173.944.794 1.098.502.124.964.393 1.454.571.306.111.441.302.45.617.032 1.173-.014 2.346.063 3.52.033.496-.226.68-.913.76-1.59.186-3.181.358-4.771.547-3.922.466-7.843.94-11.765 1.407-.726.087-1.454.153-2.179.24-.388.048-.715-.088-1.036-.276a131.468 131.468 0 0 1-6.595-4.092c-.501-.332-.777-.727-.734-1.37.057-.842.023-1.69.016-2.537-.003-.468.17-.766.678-.795.035-.002.069-.014.102-.022 1.072-.244 1.081-.243 1.188-1.313.036-.36.246-.455.555-.486 1.713-.17 3.427-.342 5.139-.52.396-.042.916-.063 1.286-.087"></path>
<path fill="#D4AF37" d="M460.321 66.477c-.072-.113-.107-.325-.144-.436a7.864 7.864 0 0 1-.299-1.218c-.137-.816-.175-1.643-.238-2.466-.095-1.254-.171-2.51-.524-3.727-.125-.431-.094-.871.004-1.284.116-.49.407-.852.976-.97.619-.129 1.221-.342 1.825-.533.113-.036.269-.127.291-.22.138-.56.437-1.093.255-1.707-.136-.463-.266-.94.084-1.388.069-.088.092-.24.081-.358-.131-1.434-.142-2.88-.363-4.307-.089-.576-.301-1.112-.47-1.663-.067-.22-.213-.396-.442-.442-1.673-.33-3.177-1.178-4.836-1.548-.256-.057-.368-.2-.379-.45-.049-1.155.204-2.05 1.581-2.08.217-.004.432-.054.648-.082.492-.063.614-.325.339-.737a.715.715 0 0 0-.175-.205c-1.261-.87-1.53-2.301-2.105-3.574-.862-1.907-1.241-4-2.298-5.828-.154-.266-.303-.534-.472-.79-.357-.542-.292-.824.228-1.23.569-.441 1.286-.466 1.924-.71 1.13-.431 2.361-.343 3.542-.535 2.346-.383 4.726-.526 7.07-.937.126-.022.251-.027.337-.144.268-.367.093-1.587-.279-1.874-.416-.32-.617-.73-.631-1.256-.034-1.244.333-2.415.597-3.609.126-.567.326-1.104.508-1.65.109-.327.386-.407.677-.46.764-.138 1.524-.001 2.28.07.329.032.535.304.655.598.395.969.583 1.963.391 3.013a100.601 100.601 0 0 0-.564 3.358c-.138.924-.008 1.051.922 1.012.216-.009.43-.062.645-.088.563-.067.933.265.875.82-.073.7-.249 1.38-.446 2.057-.237.813-.895 1.106-1.603 1.296-1.912.515-3.859.879-5.806 1.234-.914.167-1.777.53-2.703.643-.262.032-.333.236-.324.484.025.701.14 1.397.105 2.102-.019.378.274.533.568.64a68.517 68.517 0 0 0 5.389 1.74c.982.272 1.165.493 1.24 1.485.102 1.365.273 2.722.568 4.063.202.923-.401 1.795-1.242 2.203-.885.428-1.697 1.007-2.583 1.447-.194.096-.155.277-.132.43.225 1.485.073 2.985.152 4.478.047.87.087 1.757.063 2.636-.012.443.126.61.612.535.644-.098 1.301-.13 1.954-.15.739-.022.975.167 1.17.868.428 1.538.566 3.116.58 4.7.016 1.95-.089 3.907-.417 5.833-.059.35-.052.7-.196 1.026-.191.435-.372.652-.57.895-.398.489-.511.642-1.17.962-.782.38-1.291.451-1.982.505-.129.01-1.073.076-1.352.07a18.995 18.995 0 0 1-.891-.058c-.424-.042-1.561-.465-1.985-.765-.356-.251-.728-.508-.898-.706-.113-.133-.395-.579-.517-.77-.009-.013-.092-.233-.1-.248Z"></path>
<path fill="#000" d="m70.014 18.749 3.101 9.96h.12l3.107-9.96h3.008l-4.424 13.11H71.43L67 18.748h3.014Zm10.83 13.109v-9.832h2.67v9.832h-2.67Zm1.34-11.1a1.43 1.43 0 0 1-1.02-.402c-.28-.274-.42-.6-.42-.98 0-.375.14-.698.42-.966a1.42 1.42 0 0 1 1.02-.41 1.4 1.4 0 0 1 1.016.41c.284.268.426.59.426.966 0 .38-.142.706-.426.98-.28.268-.618.403-1.015.403Zm6.136 5.416v5.684h-2.669v-9.832h2.544v1.735h.113a2.732 2.732 0 0 1 1.071-1.357c.502-.337 1.11-.506 1.824-.506.668 0 1.25.15 1.748.448a3.02 3.02 0 0 1 1.16 1.28c.275.551.413 1.208.413 1.972v6.26h-2.67v-5.773c.005-.602-.146-1.072-.45-1.409-.306-.341-.725-.512-1.26-.512-.36 0-.677.08-.952.237a1.637 1.637 0 0 0-.64.691c-.15.3-.227.66-.231 1.082Zm10.977 0v5.684h-2.67v-9.832h2.544v1.735h.113a2.734 2.734 0 0 1 1.071-1.357c.502-.337 1.11-.506 1.824-.506.668 0 1.251.15 1.748.448.497.3.883.726 1.159 1.28.276.551.414 1.208.414 1.972v6.26h-2.67v-5.773c.005-.602-.146-1.072-.451-1.409-.305-.341-.724-.512-1.259-.512a1.88 1.88 0 0 0-.952.237 1.635 1.635 0 0 0-.64.691c-.15.3-.227.66-.231 1.082Zm11.051 5.87c-.614 0-1.162-.109-1.642-.326a2.66 2.66 0 0 1-1.14-.98c-.276-.435-.414-.977-.414-1.626 0-.546.098-1.005.295-1.376a2.41 2.41 0 0 1 .802-.896 3.836 3.836 0 0 1 1.153-.512 8.593 8.593 0 0 1 1.366-.243 34.85 34.85 0 0 0 1.353-.167c.342-.055.591-.136.746-.243.154-.107.231-.265.231-.474v-.038c0-.405-.125-.72-.376-.941-.246-.222-.597-.333-1.052-.333-.481 0-.863.109-1.147.326a1.503 1.503 0 0 0-.564.807l-2.468-.205a3.45 3.45 0 0 1 .739-1.549c.368-.44.842-.777 1.422-1.011.585-.24 1.262-.359 2.03-.359.535 0 1.047.064 1.535.192.493.128.93.327 1.31.596.384.268.687.614.908 1.037.222.418.333.92.333 1.504v6.631h-2.532v-1.363h-.075a2.774 2.774 0 0 1-.62.813c-.259.23-.57.412-.934.544a3.779 3.779 0 0 1-1.259.192Zm.764-1.882c.393 0 .739-.079 1.04-.237.301-.162.537-.38.708-.653.172-.273.257-.582.257-.928v-1.043a1.404 1.404 0 0 1-.344.154 6.179 6.179 0 0 1-.483.121c-.18.034-.359.066-.539.096l-.488.07a3.244 3.244 0 0 0-.821.224 1.313 1.313 0 0 0-.545.417c-.13.17-.195.384-.195.64 0 .371.132.655.395.851.267.192.606.288 1.015.288Zm6.726 1.696v-9.832h2.588v1.716h.1c.176-.61.47-1.071.884-1.383.413-.316.89-.474 1.428-.474a3.959 3.959 0 0 1 .84.096v2.42a3.428 3.428 0 0 0-.52-.102 4.566 4.566 0 0 0-.608-.045c-.392 0-.743.087-1.052.262a1.91 1.91 0 0 0-.727.717 2.099 2.099 0 0 0-.263 1.063v5.562h-2.67Zm11.158.192c-.99 0-1.842-.204-2.556-.614a4.17 4.17 0 0 1-1.642-1.754c-.384-.76-.576-1.658-.576-2.695 0-1.011.192-1.899.576-2.663a4.313 4.313 0 0 1 1.623-1.786c.702-.426 1.524-.64 2.469-.64a4.93 4.93 0 0 1 1.773.314 3.933 3.933 0 0 1 1.441.928c.413.414.735.935.965 1.562.229.623.344 1.353.344 2.19v.748h-8.126v-1.69h5.614c0-.392-.084-.74-.251-1.043a1.817 1.817 0 0 0-.695-.71 1.953 1.953 0 0 0-1.022-.263 1.999 1.999 0 0 0-1.804 1.05 2.191 2.191 0 0 0-.27 1.056v1.607c0 .486.088.906.264 1.26.179.355.432.628.758.82.326.192.712.288 1.159.288.296 0 .568-.043.814-.128.247-.085.458-.213.633-.384.176-.17.309-.38.401-.628l2.469.167a3.465 3.465 0 0 1-.771 1.587c-.384.448-.881.798-1.491 1.05-.606.248-1.305.372-2.099.372Zm21.675-8.75a4.331 4.331 0 0 0-.326-1.158 2.666 2.666 0 0 0-.602-.877 2.498 2.498 0 0 0-.908-.557 3.453 3.453 0 0 0-1.222-.199c-.76 0-1.495.2-2.206.602-.705.401-1.317.992-1.835 1.773-.514.781-.863 1.74-1.047 2.874-.184 1.135-.165 2.093.057 2.874.225.781.612 1.372 1.159 1.773.551.402 1.224.602 2.017.602.736 0 1.421-.16 2.055-.48a4.48 4.48 0 0 0 1.598-1.37c.431-.593.708-1.29.834-2.093l.451.102h-3.86l.251-1.408h4.887l-.251 1.409c-.167 1.083-.539 2.024-1.115 2.822a5.928 5.928 0 0 1-2.155 1.85 6.161 6.161 0 0 1-2.82.653c-1.136 0-2.089-.273-2.857-.82-.769-.545-1.31-1.322-1.623-2.33-.313-1.006-.357-2.201-.132-3.584.163-1.037.447-1.97.853-2.797a7.76 7.76 0 0 1 1.503-2.125 6.438 6.438 0 0 1 1.999-1.345 5.96 5.96 0 0 1 2.337-.467c.677 0 1.291.105 1.842.314a4.138 4.138 0 0 1 1.435.877c.401.375.712.826.934 1.35.221.521.338 1.1.351 1.735h-1.604Zm9.403 4.993.952-5.812h1.479l-1.604 9.832h-1.479l.276-1.664h-.1a3.942 3.942 0 0 1-1.26 1.273c-.539.346-1.171.519-1.898.519-.602 0-1.115-.134-1.542-.403-.421-.273-.722-.683-.902-1.23-.175-.55-.196-1.243-.062-2.08l1.027-6.247h1.479l-1.003 6.145c-.112.717-.006 1.289.32 1.715.326.427.796.64 1.41.64.367 0 .756-.096 1.165-.288a3.1 3.1 0 0 0 1.103-.883c.326-.397.539-.902.639-1.517Zm7.144-9.09-2.13 13.11h-1.479l2.131-13.11h1.478Zm4.2 13.315c-.806 0-1.483-.207-2.03-.621-.547-.418-.934-1.007-1.159-1.767-.222-.764-.249-1.666-.082-2.707.172-1.033.491-1.93.959-2.689.472-.76 1.05-1.346 1.736-1.76a4.256 4.256 0 0 1 2.243-.621c.626 0 1.105.106 1.435.32.334.209.576.448.726.717.151.264.266.482.345.653h.125l.79-4.84h1.478l-2.13 13.11h-1.428l.25-1.51h-.175c-.138.178-.33.405-.577.678a3.55 3.55 0 0 1-.977.723c-.401.21-.911.314-1.529.314Zm.363-1.357c.594 0 1.124-.158 1.592-.474.472-.32.865-.762 1.178-1.325.313-.567.53-1.223.651-1.965.122-.734.117-1.376-.012-1.927-.13-.555-.378-.986-.746-1.293-.367-.311-.854-.467-1.46-.467-.622 0-1.163.164-1.622.493-.46.324-.834.766-1.122 1.325a6.171 6.171 0 0 0-.601 1.869c-.113.7-.115 1.336-.007 1.907.109.568.339 1.02.689 1.358.356.332.842.499 1.46.499Zm15.044-6.478-1.403.384a2.259 2.259 0 0 0-.263-.666 1.352 1.352 0 0 0-.564-.531c-.251-.141-.593-.211-1.028-.211-.589 0-1.1.138-1.535.416-.434.273-.683.62-.746 1.043-.062.371.021.668.251.89.23.222.614.403 1.153.544l1.378.358c.828.218 1.416.544 1.767.98.355.43.477.992.364 1.683a2.983 2.983 0 0 1-.721 1.51 3.996 3.996 0 0 1-1.491 1.05c-.606.257-1.28.385-2.024.385-.99 0-1.771-.218-2.343-.653-.572-.44-.877-1.075-.915-1.908l1.479-.358c.037.525.221.922.551 1.19.334.265.802.397 1.404.397.689 0 1.263-.149 1.723-.448.459-.303.72-.665.783-1.088.063-.346-.004-.634-.201-.864-.192-.23-.526-.403-1.002-.519l-1.529-.384c-.852-.217-1.449-.55-1.792-.998-.338-.448-.451-1.012-.338-1.69a2.912 2.912 0 0 1 .701-1.472 3.96 3.96 0 0 1 1.429-1.005 4.783 4.783 0 0 1 1.88-.365c.952 0 1.664.213 2.136.64.472.422.771.986.896 1.69ZM187.372 36l2.218-13.52h1.429l-.251 1.563h.175c.134-.171.318-.389.552-.653.238-.27.558-.508.959-.717.405-.213.921-.32 1.547-.32.811 0 1.489.207 2.037.62.547.415.933 1.001 1.159 1.761.225.76.254 1.656.087 2.688-.167 1.042-.486 1.944-.958 2.708-.472.76-1.049 1.349-1.73 1.767a4.2 4.2 0 0 1-2.224.62c-.618 0-1.096-.104-1.435-.313-.338-.213-.585-.454-.739-.723a9.676 9.676 0 0 1-.357-.679h-.126L188.863 36h-1.491Zm2.87-8.603c-.117.742-.117 1.398 0 1.965.121.563.361 1.005.72 1.325.364.316.842.474 1.435.474.618 0 1.159-.167 1.623-.5a3.867 3.867 0 0 0 1.153-1.357 6.193 6.193 0 0 0 .633-1.907c.108-.691.104-1.314-.013-1.87-.117-.558-.355-1-.714-1.324-.359-.329-.852-.493-1.479-.493a2.8 2.8 0 0 0-1.598.467c-.459.307-.839.738-1.14 1.293-.297.55-.503 1.193-.62 1.927Zm11.308 5.146c-.61 0-1.145-.117-1.604-.352a2.28 2.28 0 0 1-1.022-1.03c-.221-.453-.282-.999-.181-1.639.096-.563.282-1.02.557-1.37a2.97 2.97 0 0 1 1.003-.832 5.13 5.13 0 0 1 1.278-.454c.46-.103.917-.182 1.372-.237.593-.077 1.076-.137 1.448-.18.371-.042.651-.113.839-.21.188-.099.303-.267.345-.506v-.052c.1-.627.019-1.116-.244-1.466-.264-.354-.734-.53-1.41-.53-.702 0-1.289.157-1.761.473-.472.316-.821.653-1.046 1.011l-1.304-.512c.343-.597.752-1.062 1.229-1.395a4.487 4.487 0 0 1 1.497-.704 5.96 5.96 0 0 1 1.51-.205c.309 0 .658.038 1.046.115.389.073.752.224 1.091.454.342.23.599.579.77 1.044.176.465.201 1.088.076 1.869l-1.053 6.478h-1.479l.226-1.332h-.075a3.3 3.3 0 0 1-.614.685 3.55 3.55 0 0 1-1.034.621c-.414.171-.9.256-1.46.256Zm.426-1.357c.585 0 1.096-.117 1.535-.352a3.035 3.035 0 0 0 1.065-.909c.272-.37.441-.761.508-1.171l.225-1.383c-.075.077-.223.148-.445.212-.221.06-.472.113-.752.16a33.527 33.527 0 0 1-1.434.192 6.239 6.239 0 0 0-1.122.25c-.351.11-.647.279-.89.505-.238.222-.386.525-.445.909-.087.525.036.922.37 1.19.334.265.796.397 1.385.397Zm10.33 1.332c-.806 0-1.482-.207-2.03-.621-.547-.418-.933-1.007-1.159-1.767-.221-.764-.248-1.666-.081-2.707.171-1.033.491-1.93.958-2.689.472-.76 1.051-1.346 1.736-1.76a4.258 4.258 0 0 1 2.243-.621c.627 0 1.105.106 1.435.32.334.209.576.448.727.717.15.264.265.482.344.653h.126l.789-4.84h1.479l-2.13 13.11h-1.429l.251-1.51h-.176c-.138.178-.33.405-.576.678-.247.269-.573.51-.978.723-.401.21-.91.314-1.529.314Zm.364-1.357c.593 0 1.123-.158 1.591-.474.472-.32.865-.762 1.178-1.325.314-.567.531-1.223.652-1.965.121-.734.117-1.376-.013-1.927-.129-.555-.378-.986-.745-1.293-.368-.311-.854-.467-1.46-.467-.623 0-1.163.164-1.623.493-.459.324-.833.766-1.122 1.325a6.2 6.2 0 0 0-.601 1.869c-.113.7-.115 1.336-.006 1.907.108.568.338 1.02.689 1.358.355.332.842.499 1.46.499Zm10.984 1.357c-.924 0-1.686-.21-2.287-.628-.602-.422-1.022-1.01-1.26-1.766-.238-.76-.275-1.643-.113-2.65.163-1.007.487-1.895.972-2.663.484-.773 1.088-1.374 1.81-1.805a4.53 4.53 0 0 1 2.381-.653c.502 0 .984.085 1.448.256.463.17.864.448 1.203.832.338.38.574.883.708 1.51.133.628.125 1.4-.025 2.318l-.101.64h-7.418l.2-1.306h5.915c.096-.555.071-1.05-.075-1.485a1.978 1.978 0 0 0-.746-1.03c-.35-.252-.795-.378-1.334-.378a2.83 2.83 0 0 0-1.554.46c-.48.304-.881.688-1.203 1.153-.322.46-.522.93-.602 1.408l-.175 1.127c-.125.815-.107 1.463.056 1.946.167.482.458.83.871 1.043.414.21.932.314 1.554.314.397 0 .762-.056 1.097-.167.334-.115.633-.286.896-.512a2.96 2.96 0 0 0 .664-.857l1.353.41c-.23.494-.553.93-.971 1.305a4.554 4.554 0 0 1-1.454.87 5.158 5.158 0 0 1-1.81.308Zm8.725-6.12-.953 5.915h-1.478l1.604-9.832h1.428l-.251 1.536h.126c.301-.5.708-.9 1.222-1.203.513-.308 1.134-.461 1.861-.461.643 0 1.186.136 1.629.41.447.268.762.678.946 1.228.188.547.215 1.238.081 2.075l-1.027 6.247h-1.479l1.002-6.145c.126-.768.028-1.37-.294-1.805-.318-.436-.821-.653-1.51-.653a2.84 2.84 0 0 0-1.322.313c-.401.21-.742.515-1.021.916-.276.401-.464.887-.564 1.46Zm13.432 5.915.2-1.152 4.988-4.737a36.4 36.4 0 0 0 1.459-1.453c.393-.414.698-.802.915-1.165.222-.363.366-.745.433-1.146.075-.46.035-.86-.119-1.197a1.664 1.664 0 0 0-.734-.78c-.334-.184-.735-.276-1.203-.276-.492 0-.941.104-1.347.314a2.736 2.736 0 0 0-1.008.87 3.059 3.059 0 0 0-.527 1.3h-1.478a4.42 4.42 0 0 1 .858-2.023 4.743 4.743 0 0 1 3.778-1.844c.752 0 1.389.162 1.911.487.522.324.9.761 1.134 1.312.234.55.297 1.163.188 1.837a4.578 4.578 0 0 1-.495 1.415c-.246.456-.624.966-1.134 1.53-.505.559-1.19 1.241-2.055 2.048l-3.383 3.15-.026.102h5.965l-.225 1.408h-8.095Zm14.843.179c-.944 0-1.704-.262-2.281-.787-.576-.53-.956-1.295-1.14-2.298-.184-1.007-.163-2.224.063-3.649.225-1.417.595-2.626 1.109-3.63.513-1.006 1.146-1.774 1.898-2.304a4.271 4.271 0 0 1 2.531-.8c.936 0 1.694.267 2.275.8.585.534.973 1.302 1.165 2.305.197 1.003.178 2.212-.056 3.63-.234 1.424-.608 2.639-1.122 3.641-.513 1.003-1.146 1.77-1.898 2.298a4.31 4.31 0 0 1-2.544.794Zm.226-1.408c.939 0 1.744-.46 2.412-1.383.672-.926 1.147-2.24 1.422-3.943.184-1.135.222-2.101.113-2.9-.109-.797-.351-1.406-.727-1.824-.376-.418-.873-.627-1.491-.627-.927 0-1.725.467-2.394 1.402-.668.93-1.14 2.246-1.416 3.95-.183 1.134-.223 2.099-.119 2.892.105.794.343 1.398.715 1.812.371.414.866.62 1.485.62Zm6.641 1.229.201-1.152 4.987-4.737a35.844 35.844 0 0 0 1.46-1.453c.393-.414.698-.802.915-1.165a3.2 3.2 0 0 0 .432-1.146c.075-.46.036-.86-.119-1.197a1.662 1.662 0 0 0-.733-.78c-.334-.184-.735-.276-1.203-.276-.493 0-.942.104-1.347.314a2.747 2.747 0 0 0-1.009.87 3.057 3.057 0 0 0-.526 1.3H269.1a4.433 4.433 0 0 1 .859-2.023 4.734 4.734 0 0 1 3.778-1.844c.752 0 1.389.162 1.911.487.522.324.9.761 1.134 1.312.234.55.297 1.163.188 1.837a4.63 4.63 0 0 1-.495 1.415c-.247.456-.625.966-1.134 1.53-.506.559-1.191 1.241-2.055 2.048l-3.384 3.15-.025.102h5.965l-.225 1.408h-8.096Zm15.069.179c-.835 0-1.56-.143-2.174-.429-.61-.29-1.065-.693-1.366-1.21-.301-.52-.407-1.126-.319-1.817h1.553c-.037.418.034.78.214 1.088.183.307.455.544.814.71.363.167.798.25 1.303.25.539 0 1.045-.096 1.517-.288.476-.192.875-.47 1.196-.832.322-.367.52-.805.596-1.313.066-.456.016-.861-.151-1.216-.167-.354-.455-.631-.864-.832-.406-.205-.936-.307-1.592-.307h-1.053l.226-1.408h.977c.51 0 .978-.099 1.404-.295a2.899 2.899 0 0 0 1.065-.826c.284-.358.464-.778.539-1.26.071-.423.042-.79-.088-1.102a1.436 1.436 0 0 0-.651-.736c-.305-.175-.694-.262-1.166-.262a3.67 3.67 0 0 0-1.328.25c-.43.162-.798.398-1.103.71a2.068 2.068 0 0 0-.576 1.114h-1.504a3.74 3.74 0 0 1 .871-1.799c.451-.52 1-.926 1.648-1.216a4.96 4.96 0 0 1 2.067-.442c.807 0 1.471.17 1.993.512.526.337.902.781 1.128 1.332.225.546.288 1.135.188 1.767-.113.72-.403 1.33-.871 1.83-.468.5-1.038.854-1.711 1.063v.077c.79.14 1.362.512 1.717 1.113.359.598.472 1.31.338 2.138a3.974 3.974 0 0 1-.845 1.933 4.48 4.48 0 0 1-1.699 1.261c-.685.295-1.449.442-2.293.442Z"></path>
</svg>
