<svg aria-labelledby="logo-title" xmlns="http://www.w3.org/2000/svg" preserveAspectRatio="xMinYMid meet" width="1604" height="400" viewBox="0 0 1604 400">
<title id="logo-title">Arbetarbladet</title>
<g fill="#9B1C2D" fill-rule="evenodd">
<path d="M188.812 303.7c-5.606-1.41-8.785-2.264-13.805-10.476-13.63-22.374-63.117-169.084-63.117-176.446 0-11.894-1.674-16.996-5.26-16.996-2.392 0-4.064 7.082-19.367 13.03-5.02 1.985-10.996 1.985-12.907 2.546-.72.282-3.35 4.818-3.35 6.514 0 2.268 1.437 3.4 1.437 7.936 0 6.226-11.24 42.2-24.624 79.863-24.39 68.826-29.413 88.366-41.364 94.03C3.824 304.835 0 311.633 0 313.334c0 1.697 1.436 2.834 3.35 2.834 9.082 0 18.886-1.7 27.733-1.7 5.02 0 18.883 1.7 24.863 1.7 2.15 0 2.866-.57 5.257-3.687 1.674-1.98 3.83-2.83 3.83-5.097 0-2.267-.72-3.682-3.35-3.682-7.89 0-16.738-5.098-16.738-13.876 0-18.69 8.847-40.503 13.39-57.492h55.946c4.308 16.99 14.343 41.63 14.343 54.376 0 5.668-2.385 13.03-10.516 16.993-1.674.852-5.975 8.214-5.975 9.633 0 1.98.714 2.834 2.39 2.834 5.018 0 9.803-1.7 29.168-1.7 22.71 0 34.342 1.7 39.95 1.7 2.586 0 6.898-7.65 6.898-9.637 0-1.414-.434-2.544-1.726-2.83zM65.507 211.94l21.042-62.31 21.04 62.31H65.506zm204.701-61.175c-12.193 0-22.714 18.974-32.994 30.584.24-15.575 3.35-22.373 3.35-26.055 0-.853-3.11-4.53-5.024-4.53-2.39 0-11.235 11.894-27.016 11.894-2.868 0-6.456-.567-10.76-.567-2.15 0-2.866 2.263-4.54 4.53-.958 1.415-2.868 2.55-2.868 3.964 0 2.268.955 3.964 4.78 3.964 6.693 0 10.52 4.537 10.52 17.28v93.182c0 20.954-9.584 18.408-11.325 22.09-1.088 2.267-2.61 3.964-2.61 6.516 0 1.978.433 2.544 1.96 2.544 8.707 0 21.778-1.696 28.473-1.696 9.085 0 23.43 1.696 35.145 1.696.955 0 6.215-6.226 6.215-8.494 0-6.232-9.802-.848-16.736-5.668-5.976-3.964-7.65-9.342-7.65-18.408v-64.007c0-22.372 9.802-38.236 18.65-38.236 7.41 0 9.084 10.76 13.388 10.76 3.108 0 5.26-5.377 9.322-12.457 4.782-8.212 7.892-10.762 7.892-15.864 0-6.798-8.61-13.025-18.172-13.025"></path>
<path d="M370.085 150.765c-16.975 0-20.562 10.19-36.82 20.39V130.37c0-28.89 3.11-41.916 3.11-44.466 0-1.696-2.87-5.378-5.02-5.378-2.872 0-11 13.024-29.648 13.024h-15.3c-1.675 0-7.414 7.93-7.414 9.914 0 2.268 2.39 2.268 5.5 2.55 12.67 1.132 14.823 6.23 14.823 31.15V265.75c0 37.388-8.606 38.518-8.606 47.012 0 .856 6.454 3.4 7.412 3.4 1.194 0 5.737-8.494 13.864-8.494 12.673 0 22.714 11.328 36.58 11.328 37.777 0 65.51-54.947 65.51-97.426 0-36.257-15.78-70.805-43.99-70.805zm-16.02 146.14c-7.41 0-21.278-9.065-21.278-20.96v-71.934c0-13.595 11.954-26.058 22.234-26.058 13.63 0 24.15 19.827 24.15 51.546 0 48.144-12.43 67.408-25.104 67.408zm182.995-31.721c-6.694 0-13.866 24.924-42.317 24.924-23.19 0-36.578-26.06-36.578-62.31h64.074c10.517 0 14.82-3.965 14.82-13.597 0-39.082-20.56-63.44-49.012-63.44-36.578 0-64.79 39.655-64.79 88.37 0 48.144 23.43 79.866 58.815 79.866 32.513 0 54.988-36.818 54.988-38.52 0-5.378 2.392-11.043 2.392-12.458 0-1.696-1.197-2.834-2.39-2.834zm-55.943-94.03c13.626 0 21.037 14.164 21.037 28.888 0 7.933-2.39 10.76-7.172 10.76h-30.125c-3.824 0-5.737-1.695-5.737-7.358 0-17.565 11.954-32.29 21.997-32.29zm147.378 102.529c-3.826 0-12.673 18.127-25.344 18.127-5.5 0-13.15-6.798-13.15-20.966V197.78c0-8.78.242-17.845.478-26.626h23.67c3.828 0 5.74-4.53 8.846-9.345 3.35-5.385 6.456-6.515 6.456-10.197 0-2.834-1.435-3.687-2.868-3.687-3.108 0-10.283 7.37-25.583 7.37-3.588 0-6.932-.283-10.522-.567 0-29.742 1.913-35.402 1.913-37.67 0-.566-1.67-1.702-2.867-1.702-1.433 0-7.41 3.116-8.128 5.1-5.262 16.43-18.41 32.003-33.23 37.105-1.438.566-6.697 9.342-6.697 11.038 0 2.27.716 3.12 6.217 3.12 3.107 0 5.737-.285 8.844-.566V278.78c0 26.62 9.562 40.216 32.038 40.216 12.67 0 20.56-8.212 35.384-22.938 3.824-3.682 4.304-4.82 5.02-10.198.717-3.688 2.153-5.666 2.153-8.218 0-3.11-1.436-3.96-2.63-3.96m137.65 12.46c-2.866 0-4.304 3.966-7.887 3.966-7.416 0-11-5.096-11-20.96 0-30.59 1.432-56.643 1.432-76.753 0-25.772-18.168-41.63-42.077-41.63-9.563 0-32.277 5.66-38.255 5.66-7.65 0-7.89-5.66-10.28-5.66-1.91 0-6.453 3.11-6.453 8.212 0 28.04-6.217 43.896-6.217 45.034 0 1.98.958 3.393 2.868 3.393 2.39 0 4.304-2.544 7.173-3.96 2.39-1.418 8.607-32.29 35.86-32.29 12.674 0 23.43 9.066 23.43 25.488v18.7c-31.08 1.413-76.027 15.29-76.027 61.74 0 24.356 15.78 41.916 36.1 41.916 18.41 0 27.496-16.148 41.364-27.186.24 12.742 8.605 27.186 20.323 27.186 9.083 0 15.3-11.613 26.78-17.56 3.342-1.98 5.972-11.046 5.972-12.176 0-2.268-.955-3.118-3.107-3.118zm-51.404-41.915c0 28.32-11.475 47.583-25.34 47.583-12.195 0-18.17-8.784-18.17-22.662 0-25.772 24.862-38.235 43.51-39.65v14.73zm137.891-93.462c-12.195 0-22.71 18.974-32.99 30.584.236-15.575 3.346-22.373 3.346-26.055 0-.853-3.11-4.53-5.024-4.53-2.388 0-11.237 11.894-27.015 11.894-2.87 0-6.46-.567-10.763-.567-2.147 0-2.866 2.263-4.538 4.53-.96 1.415-2.87 2.55-2.87 3.964 0 2.268.956 3.964 4.777 3.964 6.697 0 10.524 4.537 10.524 17.28v93.182c0 20.954-10.523 18.408-12.43 22.09-1.2 2.267-2.87 3.964-2.87 6.516 0 1.978.476 2.544 2.15 2.544 9.56 0 22.95-1.696 29.648-1.696 9.085 0 23.427 1.696 35.14 1.696.958 0 6.22-6.226 6.22-8.494 0-6.232-9.802-.848-16.74-5.668-5.974-3.964-7.646-9.342-7.646-18.408v-64.007c0-22.372 9.8-38.236 18.65-38.236 7.407 0 9.082 10.76 13.388 10.76 3.105 0 5.257-5.377 9.32-12.457 4.784-8.212 7.894-10.762 7.894-15.864 0-6.798-8.606-13.025-18.172-13.025"></path>
<path d="M952.51 150.765c-16.975 0-20.562 10.19-36.82 20.39V130.37c0-28.89 3.107-41.916 3.107-44.466 0-1.696-2.868-5.378-5.02-5.378-2.87 0-11 13.024-29.648 13.024h-15.3c-1.675 0-7.415 7.93-7.415 9.914 0 2.268 2.396 2.268 5.5 2.55 12.674 1.132 14.823 6.23 14.823 31.15V265.75c0 37.388-8.603 38.518-8.603 47.012 0 .856 6.454 3.4 7.41 3.4 1.193 0 5.74-8.494 13.866-8.494 12.672 0 22.713 11.328 36.582 11.328 37.773 0 65.508-54.947 65.508-97.426 0-36.257-15.783-70.805-43.99-70.805zm-16.02 146.14c-7.413 0-21.278-9.065-21.278-20.96v-71.934c0-13.595 11.954-26.058 22.234-26.058 13.626 0 24.15 19.827 24.15 51.546 0 48.144-12.438 67.408-25.105 67.408z"></path>
<path d="M1051.27 300.304c-3.11-2.834-4.782-12.748-4.782-29.175V133.486c0-37.67 2.63-42.2 2.63-46.45 0-1.415-3.824-6.51-5.262-6.51-5.978 0-7.172 13.023-32.275 13.023h-10.76c-5.02 0-9.798 7.933-9.798 9.914 0 1.414 1.194 2.55 3.107 2.55 16.257 0 18.887 3.118 18.887 32.85V275.1c0 24.358-6.695 28.322-8.133 28.603-4.78 1.42-8.603 8.498-8.603 10.2 0 1.983.48 2.262 2.87 2.262 10.996 0 20.8-1.696 30.36-1.696 9.567 0 17.695 1.696 30.6 1.696 1.917 0 6.463-6.798 6.463-8.78 0-3.68-7.89-.28-15.303-7.078m147.449-14.165c-2.87 0-4.302 3.966-7.89 3.966-7.41 0-10.998-5.096-10.998-20.96 0-30.59 1.435-56.643 1.435-76.753 0-25.772-18.17-41.63-42.08-41.63-9.562 0-32.274 5.66-38.252 5.66-7.65 0-7.89-5.66-10.28-5.66-1.913 0-6.456 3.11-6.456 8.212 0 28.04-6.218 43.896-6.218 45.034 0 1.98.956 3.393 2.87 3.393 2.39 0 4.305-2.544 7.17-3.96 2.394-1.418 8.61-32.29 35.863-32.29 12.673 0 23.433 9.066 23.433 25.488v18.7c-31.08 1.413-76.03 15.29-76.03 61.74 0 24.356 15.78 41.916 36.103 41.916 18.408 0 27.494-16.148 41.36-27.186.243 12.742 8.61 27.186 20.324 27.186 9.086 0 15.3-11.613 26.777-17.56 3.347-1.98 5.98-11.046 5.98-12.176 0-2.268-.956-3.118-3.11-3.118zm-51.402-41.915c0 28.32-11.476 47.583-25.343 47.583-12.193 0-18.172-8.784-18.172-22.662 0-25.772 24.866-38.235 43.515-39.65v14.73zm189.904 39.649c-1.91 0-7.175 4.53-9.563 4.53-5.98 0-10.284-5.38-10.284-27.47V128.954c0-25.49 2.87-39.934 2.87-44.746 0-2.268-3.11-3.687-4.544-3.687-1.674 0-11.713 13.03-33.946 13.03h-11.72c-1.67 0-7.17 7.646-7.17 8.784 0 3.964 3.345 1.978 10.04 3.68 7.414 1.98 11 6.51 11 20.388v27.758c-5.5-2.552-11.24-3.4-16.978-3.4-32.275 0-62.878 36.257-62.878 92.9 0 45.882 23.433 75.336 49.252 75.336 15.303 0 24.86-15.858 33.95-27.192 2.154 11.616 5.26 27.192 17.93 27.192 9.326 0 17.456-11.894 22.235-14.162 9.805-5.097 12.434-13.878 12.434-17.842 0-1.986-.718-3.116-2.628-3.116zm-53.317-28.887c0 18.688-10.04 35.118-20.084 35.118-12.91 0-24.863-20.394-24.863-60.892 0-39.936 12.91-58.062 27.254-58.062 13.87 0 17.695 6.23 17.695 18.126v65.71zm171.255 10.888c-6.695 0-13.87 24.922-42.316 24.922-23.19 0-36.58-26.06-36.58-62.31h64.073c10.52 0 14.823-3.967 14.823-13.596 0-39.083-20.562-63.44-49.013-63.44-36.58 0-64.793 39.65-64.793 88.367 0 48.147 23.43 79.866 58.815 79.866 32.512 0 54.99-36.82 54.99-38.517 0-5.384 2.388-11.047 2.388-12.46 0-1.703-1.197-2.833-2.388-2.833zm-55.947-94.033c13.63 0 21.043 14.162 21.043 28.888 0 7.93-2.394 10.762-7.175 10.762h-30.125c-3.826 0-5.737-1.696-5.737-7.362 0-17.56 11.952-32.288 21.995-32.288zM1547.96 274.37c-3.824 0-12.67 18.127-25.344 18.127-5.498 0-13.148-6.798-13.148-20.96V198.47c0-8.782.24-17.842.477-26.626h23.67c3.826 0 5.74-4.533 8.85-9.342 3.343-5.384 6.45-6.52 6.45-10.2 0-2.83-1.433-3.683-2.87-3.683-3.106 0-10.278 7.363-25.58 7.363-3.586 0-6.932-.28-10.52-.566 0-29.736 1.914-35.404 1.914-37.67 0-.566-1.676-1.698-2.872-1.698-1.43 0-7.407 3.115-8.128 5.1-5.26 16.425-18.41 32.004-33.233 37.1-1.435.57-6.694 9.348-6.694 11.044 0 2.268.72 3.116 6.217 3.116 3.107 0 5.74-.282 8.85-.566v107.62c0 26.627 9.56 40.222 32.032 40.222 12.67 0 20.56-8.217 35.387-22.938 3.82-3.682 4.3-4.817 5.02-10.2.716-3.683 2.15-5.663 2.15-8.213 0-3.116-1.434-3.964-2.63-3.964m33.047-.973c-12.67 0-22.938 10.338-22.938 23.094 0 12.753 10.267 23.096 22.938 23.096 12.668 0 22.937-10.343 22.937-23.096 0-12.756-10.27-23.094-22.937-23.094"></path>
</g>
</svg>
