<?xml version="1.0" encoding="UTF-8"?>
<svg width="32px" height="32px" viewBox="0 0 32 32" version="1.1" xmlns="http://www.w3.org/2000/svg" xmlns:xlink="http://www.w3.org/1999/xlink">
    <title>Exporteras/Favicon/SK/favicon</title>
    <g id="Exporteras" stroke="none" stroke-width="1" fill="none" fill-rule="evenodd">
        <g id="Logo/App/AT">
            <g id="Färger/SK/Primär-#C52038" fill="#C52038">
                <rect id="Rectangle" x="0" y="0" width="32" height="32"/>
            </g>
            <g id="Logga/Orginal-utan-marginaler/SK-förenklad" transform="translate(3.968750, 10.718750)" fill="#FFFFFF">
                <path d="M16.4618913,0 L10.6865366,0 L10.6865366,1.49164629 L11.221567,1.49164629 C12.0242144,1.49164629 12.0871472,1.63288528 12.0871472,2.38663406 L12.0871472,8.1335367 C12.0871472,8.88728548 12.0242144,9.04457897 11.221567,9.04457897 L10.6865366,9.04457897 L10.6865366,10.536022 L16.7136224,10.536022 L16.7136224,9.04457897 L16.3673903,9.04457897 C15.5963111,9.04457897 15.5176961,8.87163742 15.5176961,8.1335367 L15.5176961,7.25419699 L17.107105,6.02958384 L18.6492634,8.36886727 C18.7435607,8.49466142 18.7751289,8.63610363 18.7751289,8.7460465 C18.7751289,8.96572901 18.5547624,9.04457897 18.0354143,9.04457897 L17.5319521,9.04457897 L17.5319521,10.536022 L24.0625,10.536022 L24.0625,9.04457897 L23.4172863,9.04457897 C22.9295065,9.04457897 22.6148426,8.84013808 22.2842928,8.33777437 L19.4360248,4.08251802 L21.5604641,2.26104313 C22.1741095,1.74282814 22.6934576,1.49164629 23.055372,1.49164629 L23.5904024,1.49164629 L23.5904024,0 L17.7050681,0 L17.7050681,1.49164629 L18.5863306,1.49164629 C18.9954954,1.49164629 19.199976,1.57008981 19.199976,1.7584762 C19.199976,1.88427035 19.121361,2.0411574 18.9482449,2.18259961 L15.5333783,4.99315385 L15.5333783,2.38663406 C15.5333783,1.69568074 15.5333783,1.49164629 16.3673903,1.49164629 L16.4618913,1.49164629 L16.4618913,0 L16.4618913,0 Z M0.252452509,6.57929934 L0.252452509,10.2841203 L1.61850108,10.2841203 L1.98969977,9.7355344 C3.07431055,10.2841203 4.15798632,10.536022 5.31646284,10.536022 C7.94477396,10.536022 9.53428975,9.21680348 9.53428975,7.24637237 C9.53428975,5.27594126 8.16730617,4.43067109 5.37536842,3.79345308 C3.93545411,3.4678468 3.08833569,3.43799178 3.08833569,2.65243165 C3.08833569,2.08985118 3.6830016,1.60097528 4.61801089,1.60097528 C6.13272595,1.60097528 7.03874995,2.28204285 7.3660032,3.68989349 L9.04340987,3.68989349 L9.04340987,0.236974196 L7.61845571,0.236974196 L7.35104305,0.740777606 C6.31131272,0.222979657 5.25662224,0 4.05420029,0 C1.57362064,0 0,1.37799562 0,3.33443219 C0,4.26833444 0.371198689,4.97925703 1.17250165,5.57169252 C1.55866049,5.86837675 2.39081876,6.16506098 3.63812116,6.53544978 C5.28654254,7.03925319 6.29635257,7.09803026 6.29635257,7.98714998 C6.29635257,8.59451298 5.73254197,9.02461181 4.81155782,9.02461181 C3.3407882,9.02461181 2.16828655,8.13549209 1.69236682,6.57929934 L0.252452509,6.57929934 L0.252452509,6.57929934 Z" id="SK"/>
            </g>
        </g>
    </g>
</svg>